<svg xmlns="http://www.w3.org/2000/svg" xmlns:xlink="http://www.w3.org/1999/xlink" width="500" zoomAndPan="magnify" viewBox="0 0 375 374.999991" height="500" preserveAspectRatio="xMidYMid meet" version="1.0"><defs><g/><clipPath id="f9cb31a435"><path d="M 162.972656 129.140625 L 211.957031 129.140625 L 211.957031 174.925781 L 162.972656 174.925781 Z M 162.972656 129.140625 " clip-rule="nonzero"/></clipPath><clipPath id="f2825cf010"><path d="M 162.972656 135.066406 L 211.957031 135.066406 L 211.957031 174.925781 L 162.972656 174.925781 Z M 162.972656 135.066406 " clip-rule="nonzero"/></clipPath><clipPath id="3621e70019"><path d="M 158.875 153 L 215.875 153 L 215.875 171 L 158.875 171 Z M 158.875 153 " clip-rule="nonzero"/></clipPath><clipPath id="db46823958"><path d="M 135.699219 92.449219 L 239.199219 92.449219 L 239.199219 183.949219 L 135.699219 183.949219 Z M 135.699219 92.449219 " clip-rule="nonzero"/></clipPath><clipPath id="1b56f07b19"><path d="M 162.972656 129.140625 L 211.957031 129.140625 L 211.957031 174.925781 L 162.972656 174.925781 Z M 162.972656 129.140625 " clip-rule="nonzero"/></clipPath><clipPath id="76ddc836f9"><path d="M 162.972656 135.066406 L 211.957031 135.066406 L 211.957031 174.925781 L 162.972656 174.925781 Z M 162.972656 135.066406 " clip-rule="nonzero"/></clipPath><clipPath id="74d46e6fce"><path d="M 158.875 153 L 215.875 153 L 215.875 171 L 158.875 171 Z M 158.875 153 " clip-rule="nonzero"/></clipPath></defs><g clip-path="url(#f9cb31a435)"><path fill="#2b2526" d="M 209.839844 149.945312 C 209.492188 149.226562 209.105469 148.515625 208.675781 147.820312 C 210.054688 142.847656 210.722656 137.679688 210.652344 132.523438 C 210.636719 131.46875 210.53125 130.277344 209.710938 129.609375 C 208.699219 128.777344 207.191406 129.203125 205.992188 129.730469 C 202.160156 131.417969 198.640625 133.800781 195.644531 136.726562 C 194.226562 136.164062 192.746094 135.738281 191.21875 135.46875 C 189.992188 135.253906 188.734375 135.140625 187.457031 135.140625 C 186.179688 135.140625 184.921875 135.253906 183.695312 135.46875 C 182.167969 135.738281 180.6875 136.164062 179.269531 136.726562 C 176.273438 133.800781 172.753906 131.417969 168.921875 129.730469 C 167.722656 129.203125 166.214844 128.777344 165.203125 129.609375 C 164.382812 130.277344 164.277344 131.46875 164.261719 132.523438 C 164.191406 137.679688 164.859375 142.847656 166.234375 147.820312 C 165.808594 148.515625 165.417969 149.226562 165.074219 149.945312 C 163.726562 152.714844 162.976562 155.597656 162.976562 158.316406 C 162.976562 168.71875 173.757812 174.925781 187.28125 174.925781 C 200.800781 174.925781 211.9375 168.71875 211.9375 158.316406 C 211.9375 155.597656 211.1875 152.714844 209.839844 149.945312 " fill-opacity="1" fill-rule="nonzero"/></g><g clip-path="url(#f2825cf010)"><path fill="#2b2526" d="M 209.839844 149.945312 C 211.1875 152.714844 211.9375 155.597656 211.9375 158.316406 C 211.9375 168.71875 200.800781 174.925781 187.28125 174.925781 C 173.757812 174.925781 162.976562 168.71875 162.976562 158.316406 C 162.976562 155.597656 163.726562 152.714844 165.074219 149.945312 C 169.964844 150.378906 175.175781 148.550781 178.523438 145.433594 C 181.46875 142.6875 183.109375 139.152344 183.695312 135.46875 C 184.921875 135.253906 186.179688 135.140625 187.457031 135.140625 C 188.734375 135.140625 189.992188 135.253906 191.21875 135.46875 C 191.800781 139.152344 193.445312 142.6875 196.390625 145.433594 C 199.738281 148.550781 204.949219 150.378906 209.839844 149.945312 " fill-opacity="1" fill-rule="nonzero"/></g><path fill="#2b2526" d="M 166.617188 131.191406 C 165.832031 131.664062 165.664062 132.71875 165.609375 133.636719 C 165.359375 138.003906 165.835938 142.410156 167.011719 146.621094 C 169.164062 143.484375 172.078125 140.65625 175.496094 138.59375 C 173.921875 136.144531 171.976562 133.925781 169.742188 132.054688 C 168.855469 131.3125 167.609375 130.59375 166.617188 131.191406 Z M 209.304688 133.636719 C 209.554688 138.003906 209.078125 142.410156 207.902344 146.621094 C 205.75 143.484375 202.835938 140.65625 199.417969 138.59375 C 200.992188 136.144531 202.9375 133.925781 205.171875 132.054688 C 206.058594 131.3125 207.304688 130.59375 208.296875 131.191406 C 209.082031 131.664062 209.25 132.71875 209.304688 133.636719 " fill-opacity="1" fill-rule="nonzero"/><path fill="#2b2526" d="M 187.457031 156.984375 C 181.765625 156.984375 177.152344 159.773438 177.152344 163.210938 C 177.152344 166.652344 181.765625 169.441406 187.457031 169.441406 C 193.148438 169.441406 197.761719 166.652344 197.761719 163.210938 C 197.761719 159.773438 193.148438 156.984375 187.457031 156.984375 Z M 175.496094 138.59375 C 173.921875 136.144531 171.976562 133.925781 169.742188 132.054688 C 168.855469 131.3125 167.609375 130.59375 166.617188 131.191406 C 165.832031 131.664062 165.664062 132.71875 165.609375 133.636719 C 165.359375 138.003906 165.835938 142.410156 167.011719 146.621094 C 169.164062 143.484375 172.078125 140.65625 175.496094 138.59375 Z M 183.695312 135.46875 C 183.109375 139.152344 181.46875 142.6875 178.523438 145.433594 C 175.175781 148.550781 169.964844 150.378906 165.074219 149.945312 C 165.417969 149.226562 165.808594 148.515625 166.234375 147.820312 C 164.859375 142.847656 164.191406 137.679688 164.261719 132.523438 C 164.277344 131.46875 164.382812 130.277344 165.203125 129.609375 C 166.214844 128.777344 167.722656 129.203125 168.921875 129.730469 C 172.753906 131.417969 176.273438 133.800781 179.269531 136.726562 C 180.6875 136.164062 182.167969 135.738281 183.695312 135.46875 Z M 207.902344 146.621094 C 209.078125 142.410156 209.554688 138.003906 209.304688 133.636719 C 209.25 132.71875 209.082031 131.664062 208.296875 131.191406 C 207.304688 130.59375 206.058594 131.3125 205.171875 132.054688 C 202.9375 133.925781 200.992188 136.144531 199.417969 138.59375 C 202.835938 140.65625 205.75 143.484375 207.902344 146.621094 Z M 210.652344 132.523438 C 210.722656 137.679688 210.054688 142.847656 208.675781 147.820312 C 209.105469 148.515625 209.492188 149.226562 209.839844 149.945312 C 204.949219 150.378906 199.738281 148.550781 196.390625 145.433594 C 193.445312 142.6875 191.800781 139.152344 191.21875 135.46875 C 192.746094 135.738281 194.226562 136.164062 195.644531 136.726562 C 198.640625 133.800781 202.160156 131.417969 205.992188 129.730469 C 207.191406 129.203125 208.699219 128.777344 209.710938 129.609375 C 210.53125 130.277344 210.636719 131.46875 210.652344 132.523438 " fill-opacity="1" fill-rule="nonzero"/><g clip-path="url(#3621e70019)"><path fill="#2b2526" d="M 181.898438 163.851562 C 179.464844 164.050781 176.945312 164.96875 174.765625 166.023438 C 172.800781 166.972656 170.890625 168.203125 169.445312 169.851562 C 169.246094 170.082031 169.648438 170.207031 169.8125 170.054688 C 171.386719 168.621094 173.117188 167.394531 175.019531 166.4375 C 175.984375 165.953125 176.976562 165.53125 177.996094 165.175781 C 179.292969 164.71875 180.628906 164.429688 181.949219 164.046875 C 182.085938 164.007812 182.027344 163.84375 181.898438 163.851562 Z M 176.714844 162.933594 C 178.335938 162.882812 179.941406 163.089844 181.554688 163.078125 C 181.671875 163.074219 181.734375 162.90625 181.601562 162.871094 C 180.078125 162.453125 178.34375 162.472656 176.773438 162.476562 C 175.105469 162.484375 173.4375 162.640625 171.792969 162.902344 C 168.5 163.429688 165.296875 164.476562 162.335938 166.019531 C 162.019531 166.1875 162.273438 166.546875 162.566406 166.40625 C 165.507812 165.011719 168.617188 163.996094 171.820312 163.429688 C 173.441406 163.144531 175.074219 162.988281 176.714844 162.933594 Z M 181.632812 161.984375 C 181.8125 162.117188 182.203125 161.902344 181.992188 161.738281 C 175.398438 156.636719 166.398438 159.125 159.179688 161.257812 C 158.882812 161.34375 158.9375 161.722656 159.253906 161.65625 C 163.261719 160.820312 167.191406 159.515625 171.304688 159.320312 C 174.898438 159.148438 178.6875 159.804688 181.632812 161.984375 Z M 200.109375 165.980469 C 197.9375 164.945312 195.445312 164.042969 193.03125 163.855469 C 192.917969 163.84375 192.804688 164 192.953125 164.046875 C 194.09375 164.386719 195.257812 164.632812 196.390625 165.011719 C 197.550781 165.394531 198.679688 165.855469 199.769531 166.402344 C 201.722656 167.378906 203.476562 168.632812 205.105469 170.082031 C 205.273438 170.230469 205.648438 170.039062 205.464844 169.828125 C 204.027344 168.15625 202.085938 166.921875 200.109375 165.980469 Z M 212.621094 166.019531 C 209.636719 164.453125 206.394531 163.402344 203.0625 162.882812 C 201.457031 162.632812 199.824219 162.484375 198.199219 162.476562 C 196.609375 162.472656 194.871094 162.464844 193.324219 162.871094 C 193.203125 162.902344 193.214844 163.074219 193.34375 163.078125 C 194.945312 163.09375 196.535156 162.882812 198.140625 162.933594 C 199.789062 162.988281 201.425781 163.148438 203.050781 163.433594 C 206.253906 164 209.363281 165.019531 212.300781 166.40625 C 212.554688 166.527344 212.929688 166.183594 212.621094 166.019531 Z M 215.789062 161.261719 C 208.585938 159.113281 199.550781 156.640625 192.960938 161.726562 C 192.726562 161.910156 193.042969 162.144531 193.242188 162 C 196.191406 159.804688 199.957031 159.148438 203.566406 159.320312 C 207.675781 159.515625 211.601562 160.832031 215.601562 161.652344 C 215.867188 161.707031 216.113281 161.355469 215.789062 161.261719 Z M 176.199219 157.332031 C 178.238281 157.003906 179.949219 155.332031 180.234375 153.277344 C 180.277344 152.949219 179.738281 153.007812 179.667969 153.273438 C 179.230469 154.957031 177.78125 156.390625 176.015625 156.558594 C 174.320312 156.722656 172.789062 155.703125 171.824219 154.382812 C 171.648438 154.136719 171.042969 154.304688 171.167969 154.640625 C 171.910156 156.605469 174.175781 157.660156 176.199219 157.332031 Z M 198.617188 157.339844 C 200.644531 157.652344 202.957031 156.554688 203.734375 154.605469 C 203.886719 154.230469 203.273438 154.171875 203.105469 154.417969 C 202.140625 155.804688 200.578125 156.785156 198.835938 156.535156 C 197.109375 156.289062 195.683594 154.875 195.242188 153.214844 C 195.164062 152.921875 194.644531 153.035156 194.683594 153.335938 C 194.957031 155.355469 196.597656 157.027344 198.617188 157.339844 Z M 193.890625 166.019531 C 193.066406 167.246094 191.4375 167.550781 190.097656 167.074219 C 188.929688 166.660156 188.015625 165.734375 187.441406 164.644531 C 186.824219 165.769531 185.84375 166.707031 184.613281 167.117188 C 183.304688 167.550781 181.78125 167.1875 180.992188 166.007812 C 180.855469 165.800781 181.273438 165.613281 181.40625 165.777344 C 182.28125 166.855469 183.753906 166.988281 184.933594 166.324219 C 185.855469 165.800781 186.449219 164.957031 186.988281 164.078125 C 186.761719 164.007812 186.542969 163.894531 186.355469 163.726562 L 184.332031 161.925781 C 183.191406 160.914062 183.90625 159.035156 185.429688 159.035156 L 189.484375 159.035156 C 191.007812 159.035156 191.722656 160.914062 190.582031 161.925781 L 188.554688 163.726562 C 188.378906 163.886719 188.171875 163.996094 187.957031 164.066406 C 188.511719 164.945312 189.109375 165.789062 190.039062 166.3125 C 191.195312 166.964844 192.636719 166.886719 193.5 165.808594 C 193.660156 165.609375 194.066406 165.761719 193.890625 166.019531 " fill-opacity="1" fill-rule="nonzero"/></g><path fill="#2b2526" d="M 201.964844 151.101562 C 201.964844 149.859375 200.71875 148.847656 199.183594 148.847656 C 197.644531 148.847656 196.398438 149.859375 196.398438 151.101562 C 196.398438 152.34375 197.644531 151.101562 199.183594 151.101562 C 200.71875 151.101562 201.964844 152.34375 201.964844 151.101562 Z M 175.730469 151.082031 C 174.195312 151.082031 172.949219 152.328125 172.949219 151.082031 C 172.949219 149.839844 174.195312 148.832031 175.730469 148.832031 C 177.269531 148.832031 178.511719 149.839844 178.511719 151.082031 C 178.511719 152.328125 177.269531 151.082031 175.730469 151.082031 " fill-opacity="1" fill-rule="nonzero"/><g clip-path="url(#db46823958)"><path fill="#08c5d1" d="M 187.378906 92.5625 C 186.945312 92.613281 186.539062 92.808594 186.230469 93.121094 L 136.464844 142.886719 C 135.710938 143.644531 135.71875 144.871094 136.480469 145.625 C 136.839844 145.980469 137.328125 146.179688 137.835938 146.183594 L 148.347656 146.183594 L 148.347656 181.578125 C 148.351562 182.640625 149.210938 183.503906 150.273438 183.507812 L 224.921875 183.507812 C 225.984375 183.503906 226.847656 182.640625 226.851562 181.578125 L 226.851562 146.183594 L 237.363281 146.183594 C 238.433594 146.179688 239.296875 145.3125 239.292969 144.242188 C 239.289062 143.734375 239.089844 143.246094 238.734375 142.886719 L 226.601562 130.757812 L 226.601562 114.148438 C 226.597656 113.085938 225.738281 112.222656 224.675781 112.21875 L 216.464844 112.21875 C 215.398438 112.222656 214.539062 113.085938 214.535156 114.148438 L 214.535156 118.6875 L 188.96875 93.121094 C 188.550781 92.703125 187.964844 92.496094 187.378906 92.5625 Z M 187.378906 92.5625 " fill-opacity="1" fill-rule="nonzero"/></g><g clip-path="url(#1b56f07b19)"><path fill="#ffbf66" d="M 209.839844 149.945312 C 209.492188 149.226562 209.105469 148.515625 208.675781 147.820312 C 210.054688 142.847656 210.722656 137.679688 210.652344 132.523438 C 210.636719 131.46875 210.53125 130.277344 209.710938 129.609375 C 208.699219 128.777344 207.191406 129.203125 205.992188 129.730469 C 202.160156 131.417969 198.640625 133.800781 195.644531 136.726562 C 194.226562 136.164062 192.746094 135.738281 191.21875 135.46875 C 189.992188 135.253906 188.734375 135.140625 187.457031 135.140625 C 186.179688 135.140625 184.921875 135.253906 183.695312 135.46875 C 182.167969 135.738281 180.6875 136.164062 179.269531 136.726562 C 176.273438 133.800781 172.753906 131.417969 168.921875 129.730469 C 167.722656 129.203125 166.214844 128.777344 165.203125 129.609375 C 164.382812 130.277344 164.277344 131.46875 164.261719 132.523438 C 164.191406 137.679688 164.859375 142.847656 166.234375 147.820312 C 165.808594 148.515625 165.417969 149.226562 165.074219 149.945312 C 163.726562 152.714844 162.976562 155.597656 162.976562 158.316406 C 162.976562 168.71875 173.757812 174.925781 187.28125 174.925781 C 200.800781 174.925781 211.9375 168.71875 211.9375 158.316406 C 211.9375 155.597656 211.1875 152.714844 209.839844 149.945312 " fill-opacity="1" fill-rule="nonzero"/></g><g clip-path="url(#76ddc836f9)"><path fill="#2b2526" d="M 209.839844 149.945312 C 211.1875 152.714844 211.9375 155.597656 211.9375 158.316406 C 211.9375 168.71875 200.800781 174.925781 187.28125 174.925781 C 173.757812 174.925781 162.976562 168.71875 162.976562 158.316406 C 162.976562 155.597656 163.726562 152.714844 165.074219 149.945312 C 169.964844 150.378906 175.175781 148.550781 178.523438 145.433594 C 181.46875 142.6875 183.109375 139.152344 183.695312 135.46875 C 184.921875 135.253906 186.179688 135.140625 187.457031 135.140625 C 188.734375 135.140625 189.992188 135.253906 191.21875 135.46875 C 191.800781 139.152344 193.445312 142.6875 196.390625 145.433594 C 199.738281 148.550781 204.949219 150.378906 209.839844 149.945312 " fill-opacity="1" fill-rule="nonzero"/></g><path fill="#2b2526" d="M 166.617188 131.191406 C 165.832031 131.664062 165.664062 132.71875 165.609375 133.636719 C 165.359375 138.003906 165.835938 142.410156 167.011719 146.621094 C 169.164062 143.484375 172.078125 140.65625 175.496094 138.59375 C 173.921875 136.144531 171.976562 133.925781 169.742188 132.054688 C 168.855469 131.3125 167.609375 130.59375 166.617188 131.191406 Z M 209.304688 133.636719 C 209.554688 138.003906 209.078125 142.410156 207.902344 146.621094 C 205.75 143.484375 202.835938 140.65625 199.417969 138.59375 C 200.992188 136.144531 202.9375 133.925781 205.171875 132.054688 C 206.058594 131.3125 207.304688 130.59375 208.296875 131.191406 C 209.082031 131.664062 209.25 132.71875 209.304688 133.636719 " fill-opacity="1" fill-rule="nonzero"/><path fill="#ffbf66" d="M 187.457031 156.984375 C 181.765625 156.984375 177.152344 159.773438 177.152344 163.210938 C 177.152344 166.652344 181.765625 169.441406 187.457031 169.441406 C 193.148438 169.441406 197.761719 166.652344 197.761719 163.210938 C 197.761719 159.773438 193.148438 156.984375 187.457031 156.984375 Z M 175.496094 138.59375 C 173.921875 136.144531 171.976562 133.925781 169.742188 132.054688 C 168.855469 131.3125 167.609375 130.59375 166.617188 131.191406 C 165.832031 131.664062 165.664062 132.71875 165.609375 133.636719 C 165.359375 138.003906 165.835938 142.410156 167.011719 146.621094 C 169.164062 143.484375 172.078125 140.65625 175.496094 138.59375 Z M 183.695312 135.46875 C 183.109375 139.152344 181.46875 142.6875 178.523438 145.433594 C 175.175781 148.550781 169.964844 150.378906 165.074219 149.945312 C 165.417969 149.226562 165.808594 148.515625 166.234375 147.820312 C 164.859375 142.847656 164.191406 137.679688 164.261719 132.523438 C 164.277344 131.46875 164.382812 130.277344 165.203125 129.609375 C 166.214844 128.777344 167.722656 129.203125 168.921875 129.730469 C 172.753906 131.417969 176.273438 133.800781 179.269531 136.726562 C 180.6875 136.164062 182.167969 135.738281 183.695312 135.46875 Z M 207.902344 146.621094 C 209.078125 142.410156 209.554688 138.003906 209.304688 133.636719 C 209.25 132.71875 209.082031 131.664062 208.296875 131.191406 C 207.304688 130.59375 206.058594 131.3125 205.171875 132.054688 C 202.9375 133.925781 200.992188 136.144531 199.417969 138.59375 C 202.835938 140.65625 205.75 143.484375 207.902344 146.621094 Z M 210.652344 132.523438 C 210.722656 137.679688 210.054688 142.847656 208.675781 147.820312 C 209.105469 148.515625 209.492188 149.226562 209.839844 149.945312 C 204.949219 150.378906 199.738281 148.550781 196.390625 145.433594 C 193.445312 142.6875 191.800781 139.152344 191.21875 135.46875 C 192.746094 135.738281 194.226562 136.164062 195.644531 136.726562 C 198.640625 133.800781 202.160156 131.417969 205.992188 129.730469 C 207.191406 129.203125 208.699219 128.777344 209.710938 129.609375 C 210.53125 130.277344 210.636719 131.46875 210.652344 132.523438 " fill-opacity="1" fill-rule="nonzero"/><g clip-path="url(#74d46e6fce)"><path fill="#00353f" d="M 181.898438 163.851562 C 179.464844 164.050781 176.945312 164.96875 174.765625 166.023438 C 172.800781 166.972656 170.890625 168.203125 169.445312 169.851562 C 169.246094 170.082031 169.648438 170.207031 169.8125 170.054688 C 171.386719 168.621094 173.117188 167.394531 175.019531 166.4375 C 175.984375 165.953125 176.976562 165.53125 177.996094 165.175781 C 179.292969 164.71875 180.628906 164.429688 181.949219 164.046875 C 182.085938 164.007812 182.027344 163.84375 181.898438 163.851562 Z M 176.714844 162.933594 C 178.335938 162.882812 179.941406 163.089844 181.554688 163.078125 C 181.671875 163.074219 181.734375 162.90625 181.601562 162.871094 C 180.078125 162.453125 178.34375 162.472656 176.773438 162.476562 C 175.105469 162.484375 173.4375 162.640625 171.792969 162.902344 C 168.5 163.429688 165.296875 164.476562 162.335938 166.019531 C 162.019531 166.1875 162.273438 166.546875 162.566406 166.40625 C 165.507812 165.011719 168.617188 163.996094 171.820312 163.429688 C 173.441406 163.144531 175.074219 162.988281 176.714844 162.933594 Z M 181.632812 161.984375 C 181.8125 162.117188 182.203125 161.902344 181.992188 161.738281 C 175.398438 156.636719 166.398438 159.125 159.179688 161.257812 C 158.882812 161.34375 158.9375 161.722656 159.253906 161.65625 C 163.261719 160.820312 167.191406 159.515625 171.304688 159.320312 C 174.898438 159.148438 178.6875 159.804688 181.632812 161.984375 Z M 200.109375 165.980469 C 197.9375 164.945312 195.445312 164.042969 193.03125 163.855469 C 192.917969 163.84375 192.804688 164 192.953125 164.046875 C 194.09375 164.386719 195.257812 164.632812 196.390625 165.011719 C 197.550781 165.394531 198.679688 165.855469 199.769531 166.402344 C 201.722656 167.378906 203.476562 168.632812 205.105469 170.082031 C 205.273438 170.230469 205.648438 170.039062 205.464844 169.828125 C 204.027344 168.15625 202.085938 166.921875 200.109375 165.980469 Z M 212.621094 166.019531 C 209.636719 164.453125 206.394531 163.402344 203.0625 162.882812 C 201.457031 162.632812 199.824219 162.484375 198.199219 162.476562 C 196.609375 162.472656 194.871094 162.464844 193.324219 162.871094 C 193.203125 162.902344 193.214844 163.074219 193.34375 163.078125 C 194.945312 163.09375 196.535156 162.882812 198.140625 162.933594 C 199.789062 162.988281 201.425781 163.148438 203.050781 163.433594 C 206.253906 164 209.363281 165.019531 212.300781 166.40625 C 212.554688 166.527344 212.929688 166.183594 212.621094 166.019531 Z M 215.789062 161.261719 C 208.585938 159.113281 199.550781 156.640625 192.960938 161.726562 C 192.726562 161.910156 193.042969 162.144531 193.242188 162 C 196.191406 159.804688 199.957031 159.148438 203.566406 159.320312 C 207.675781 159.515625 211.601562 160.832031 215.601562 161.652344 C 215.867188 161.707031 216.113281 161.355469 215.789062 161.261719 Z M 176.199219 157.332031 C 178.238281 157.003906 179.949219 155.332031 180.234375 153.277344 C 180.277344 152.949219 179.738281 153.007812 179.667969 153.273438 C 179.230469 154.957031 177.78125 156.390625 176.015625 156.558594 C 174.320312 156.722656 172.789062 155.703125 171.824219 154.382812 C 171.648438 154.136719 171.042969 154.304688 171.167969 154.640625 C 171.910156 156.605469 174.175781 157.660156 176.199219 157.332031 Z M 198.617188 157.339844 C 200.644531 157.652344 202.957031 156.554688 203.734375 154.605469 C 203.886719 154.230469 203.273438 154.171875 203.105469 154.417969 C 202.140625 155.804688 200.578125 156.785156 198.835938 156.535156 C 197.109375 156.289062 195.683594 154.875 195.242188 153.214844 C 195.164062 152.921875 194.644531 153.035156 194.683594 153.335938 C 194.957031 155.355469 196.597656 157.027344 198.617188 157.339844 Z M 193.890625 166.019531 C 193.066406 167.246094 191.4375 167.550781 190.097656 167.074219 C 188.929688 166.660156 188.015625 165.734375 187.441406 164.644531 C 186.824219 165.769531 185.84375 166.707031 184.613281 167.117188 C 183.304688 167.550781 181.78125 167.1875 180.992188 166.007812 C 180.855469 165.800781 181.273438 165.613281 181.40625 165.777344 C 182.28125 166.855469 183.753906 166.988281 184.933594 166.324219 C 185.855469 165.800781 186.449219 164.957031 186.988281 164.078125 C 186.761719 164.007812 186.542969 163.894531 186.355469 163.726562 L 184.332031 161.925781 C 183.191406 160.914062 183.90625 159.035156 185.429688 159.035156 L 189.484375 159.035156 C 191.007812 159.035156 191.722656 160.914062 190.582031 161.925781 L 188.554688 163.726562 C 188.378906 163.886719 188.171875 163.996094 187.957031 164.066406 C 188.511719 164.945312 189.109375 165.789062 190.039062 166.3125 C 191.195312 166.964844 192.636719 166.886719 193.5 165.808594 C 193.660156 165.609375 194.066406 165.761719 193.890625 166.019531 " fill-opacity="1" fill-rule="nonzero"/></g><path fill="#ffbf66" d="M 201.964844 151.101562 C 201.964844 149.859375 200.71875 148.847656 199.183594 148.847656 C 197.644531 148.847656 196.398438 149.859375 196.398438 151.101562 C 196.398438 152.34375 197.644531 151.101562 199.183594 151.101562 C 200.71875 151.101562 201.964844 152.34375 201.964844 151.101562 Z M 175.730469 151.082031 C 174.195312 151.082031 172.949219 152.328125 172.949219 151.082031 C 172.949219 149.839844 174.195312 148.832031 175.730469 148.832031 C 177.269531 148.832031 178.511719 149.839844 178.511719 151.082031 C 178.511719 152.328125 177.269531 151.082031 175.730469 151.082031 " fill-opacity="1" fill-rule="nonzero"/><g fill="#ffffff" fill-opacity="1"><g transform="translate(67.503897, 210.180075)"><g><path d="M 4.390625 -13.109375 C 4.421875 -12.847656 4.332031 -12.632812 4.125 -12.46875 C 3.914062 -12.3125 3.679688 -12.21875 3.421875 -12.1875 C 3.160156 -12.15625 2.910156 -12.191406 2.671875 -12.296875 C 2.441406 -12.398438 2.3125 -12.582031 2.28125 -12.84375 C 2.1875 -13.53125 2.0625 -14.257812 1.90625 -15.03125 C 1.757812 -15.8125 1.582031 -16.632812 1.375 -17.5 C 1.300781 -17.769531 1.375 -17.992188 1.59375 -18.171875 C 1.820312 -18.359375 2.082031 -18.472656 2.375 -18.515625 C 2.675781 -18.554688 2.96875 -18.519531 3.25 -18.40625 C 3.53125 -18.289062 3.703125 -18.066406 3.765625 -17.734375 C 3.890625 -16.984375 4.007812 -16.203125 4.125 -15.390625 C 4.238281 -14.585938 4.328125 -13.828125 4.390625 -13.109375 Z M 8.546875 -17.65625 C 8.460938 -16.832031 8.351562 -15.988281 8.21875 -15.125 C 8.082031 -14.257812 7.925781 -13.414062 7.75 -12.59375 C 7.707031 -12.34375 7.5625 -12.164062 7.3125 -12.0625 C 7.0625 -11.96875 6.800781 -11.929688 6.53125 -11.953125 C 6.269531 -11.984375 6.035156 -12.066406 5.828125 -12.203125 C 5.617188 -12.335938 5.53125 -12.519531 5.5625 -12.75 C 5.695312 -13.65625 5.800781 -14.523438 5.875 -15.359375 C 5.957031 -16.191406 6.015625 -17.023438 6.046875 -17.859375 C 6.066406 -18.160156 6.210938 -18.378906 6.484375 -18.515625 C 6.753906 -18.648438 7.046875 -18.703125 7.359375 -18.671875 C 7.679688 -18.648438 7.96875 -18.554688 8.21875 -18.390625 C 8.46875 -18.222656 8.578125 -17.976562 8.546875 -17.65625 Z M 8.546875 -17.65625 "/></g></g></g><g fill="#ffffff" fill-opacity="1"><g transform="translate(77.103912, 210.180075)"><g><path d="M 16.625 -2.40625 C 16.800781 -2.082031 16.863281 -1.773438 16.8125 -1.484375 C 16.769531 -1.203125 16.65625 -0.957031 16.46875 -0.75 C 16.289062 -0.539062 16.0625 -0.367188 15.78125 -0.234375 C 15.5 -0.0976562 15.207031 -0.03125 14.90625 -0.03125 C 14.613281 -0.03125 14.335938 -0.09375 14.078125 -0.21875 C 13.828125 -0.34375 13.628906 -0.554688 13.484375 -0.859375 C 13.210938 -1.421875 12.953125 -2 12.703125 -2.59375 C 12.460938 -3.1875 12.21875 -3.800781 11.96875 -4.4375 C 10.613281 -4.351562 9.28125 -4.269531 7.96875 -4.1875 C 6.65625 -4.101562 5.460938 -4.003906 4.390625 -3.890625 C 4.035156 -2.878906 3.722656 -1.921875 3.453125 -1.015625 C 3.359375 -0.691406 3.195312 -0.4375 2.96875 -0.25 C 2.75 -0.0625 2.492188 0.0625 2.203125 0.125 C 1.921875 0.1875 1.632812 0.1875 1.34375 0.125 C 1.050781 0.0703125 0.800781 -0.03125 0.59375 -0.1875 C 0.382812 -0.351562 0.234375 -0.5625 0.140625 -0.8125 C 0.046875 -1.070312 0.046875 -1.378906 0.140625 -1.734375 C 0.441406 -2.941406 0.828125 -4.15625 1.296875 -5.375 C 1.773438 -6.601562 2.28125 -7.789062 2.8125 -8.9375 C 3.351562 -10.082031 3.90625 -11.171875 4.46875 -12.203125 C 5.039062 -13.234375 5.59375 -14.164062 6.125 -15 C 6.570312 -15.707031 7.101562 -16.21875 7.71875 -16.53125 C 8.332031 -16.851562 8.9375 -16.992188 9.53125 -16.953125 C 10.132812 -16.910156 10.679688 -16.691406 11.171875 -16.296875 C 11.660156 -15.898438 12 -15.320312 12.1875 -14.5625 C 12.488281 -13.363281 12.8125 -12.179688 13.15625 -11.015625 C 13.507812 -9.847656 13.898438 -8.6875 14.328125 -7.53125 C 14.691406 -7.550781 15.023438 -7.5625 15.328125 -7.5625 C 15.640625 -7.570312 15.9375 -7.578125 16.21875 -7.578125 C 16.65625 -7.578125 16.984375 -7.425781 17.203125 -7.125 C 17.429688 -6.820312 17.546875 -6.484375 17.546875 -6.109375 C 17.554688 -5.742188 17.460938 -5.40625 17.265625 -5.09375 C 17.078125 -4.78125 16.785156 -4.617188 16.390625 -4.609375 C 16.273438 -4.609375 16.15625 -4.601562 16.03125 -4.59375 C 15.914062 -4.582031 15.75 -4.578125 15.53125 -4.578125 C 15.71875 -4.148438 15.90625 -3.757812 16.09375 -3.40625 C 16.28125 -3.050781 16.457031 -2.71875 16.625 -2.40625 Z M 10.9375 -7.34375 C 10.570312 -8.425781 10.238281 -9.492188 9.9375 -10.546875 C 9.632812 -11.597656 9.347656 -12.695312 9.078125 -13.84375 C 8.492188 -12.90625 7.910156 -11.847656 7.328125 -10.671875 C 6.742188 -9.503906 6.15625 -8.242188 5.5625 -6.890625 C 6.425781 -6.984375 7.296875 -7.066406 8.171875 -7.140625 C 9.054688 -7.210938 9.976562 -7.28125 10.9375 -7.34375 Z M 10.9375 -7.34375 "/></g></g></g><g fill="#ffffff" fill-opacity="1"><g transform="translate(94.215941, 210.180075)"><g><path d="M 17.546875 -1.96875 C 17.796875 -1.664062 17.84375 -1.335938 17.6875 -0.984375 C 17.539062 -0.628906 17.300781 -0.335938 16.96875 -0.109375 C 16.632812 0.109375 16.253906 0.210938 15.828125 0.203125 C 15.398438 0.191406 15.035156 -0.0195312 14.734375 -0.4375 C 14.460938 -0.78125 14.210938 -1.210938 13.984375 -1.734375 C 13.765625 -2.253906 13.613281 -2.828125 13.53125 -3.453125 C 12.738281 -2.160156 11.785156 -1.222656 10.671875 -0.640625 C 9.554688 -0.0664062 8.269531 0.257812 6.8125 0.34375 C 4.90625 0.4375 3.441406 0.0195312 2.421875 -0.90625 C 1.410156 -1.832031 0.945312 -3.191406 1.03125 -4.984375 C 1.0625 -5.984375 1.289062 -6.929688 1.71875 -7.828125 C 2.15625 -8.734375 2.738281 -9.535156 3.46875 -10.234375 C 4.207031 -10.929688 5.078125 -11.488281 6.078125 -11.90625 C 7.078125 -12.320312 8.164062 -12.53125 9.34375 -12.53125 C 9.945312 -12.53125 10.425781 -12.492188 10.78125 -12.421875 C 11.144531 -12.347656 11.488281 -12.238281 11.8125 -12.09375 C 12.175781 -11.9375 12.390625 -11.679688 12.453125 -11.328125 C 12.515625 -10.972656 12.488281 -10.628906 12.375 -10.296875 C 12.269531 -9.960938 12.097656 -9.691406 11.859375 -9.484375 C 11.617188 -9.285156 11.367188 -9.242188 11.109375 -9.359375 C 10.953125 -9.441406 10.71875 -9.519531 10.40625 -9.59375 C 10.09375 -9.675781 9.789062 -9.71875 9.5 -9.71875 C 8.863281 -9.71875 8.238281 -9.601562 7.625 -9.375 C 7.019531 -9.15625 6.476562 -8.84375 6 -8.4375 C 5.53125 -8.03125 5.144531 -7.546875 4.84375 -6.984375 C 4.539062 -6.421875 4.375 -5.804688 4.34375 -5.140625 C 4.289062 -4.242188 4.503906 -3.609375 4.984375 -3.234375 C 5.472656 -2.867188 6.128906 -2.695312 6.953125 -2.71875 C 7.441406 -2.726562 7.953125 -2.804688 8.484375 -2.953125 C 9.015625 -3.109375 9.523438 -3.359375 10.015625 -3.703125 C 10.503906 -4.046875 10.957031 -4.5 11.375 -5.0625 C 11.789062 -5.632812 12.128906 -6.335938 12.390625 -7.171875 C 12.453125 -7.378906 12.519531 -7.726562 12.59375 -8.21875 C 12.675781 -8.707031 12.757812 -9.273438 12.84375 -9.921875 C 12.9375 -10.566406 13.023438 -11.257812 13.109375 -12 C 13.203125 -12.738281 13.285156 -13.453125 13.359375 -14.140625 C 13.441406 -14.835938 13.507812 -15.484375 13.5625 -16.078125 C 13.625 -16.679688 13.664062 -17.171875 13.6875 -17.546875 C 13.695312 -17.828125 13.796875 -18.0625 13.984375 -18.25 C 14.179688 -18.4375 14.410156 -18.5625 14.671875 -18.625 C 14.941406 -18.6875 15.226562 -18.695312 15.53125 -18.65625 C 15.832031 -18.613281 16.101562 -18.53125 16.34375 -18.40625 C 16.582031 -18.28125 16.773438 -18.101562 16.921875 -17.875 C 17.066406 -17.65625 17.113281 -17.394531 17.0625 -17.09375 C 17 -16.71875 16.925781 -16.222656 16.84375 -15.609375 C 16.769531 -14.992188 16.679688 -14.328125 16.578125 -13.609375 C 16.484375 -12.890625 16.390625 -12.148438 16.296875 -11.390625 C 16.210938 -10.640625 16.132812 -9.941406 16.0625 -9.296875 C 15.988281 -8.648438 15.929688 -8.082031 15.890625 -7.59375 C 15.859375 -7.101562 15.84375 -6.765625 15.84375 -6.578125 C 15.851562 -5.710938 16.019531 -4.867188 16.34375 -4.046875 C 16.675781 -3.222656 17.078125 -2.53125 17.546875 -1.96875 Z M 17.546875 -1.96875 "/></g></g></g><g fill="#ffffff" fill-opacity="1"><g transform="translate(111.735966, 210.180075)"><g><path d="M 15.234375 -5.78125 C 15.160156 -4.875 14.953125 -4.054688 14.609375 -3.328125 C 14.273438 -2.597656 13.800781 -1.976562 13.1875 -1.46875 C 12.570312 -0.957031 11.816406 -0.5625 10.921875 -0.28125 C 10.023438 0 8.976562 0.140625 7.78125 0.140625 C 6.6875 0.140625 5.710938 0 4.859375 -0.28125 C 4.015625 -0.570312 3.300781 -0.976562 2.71875 -1.5 C 2.132812 -2.019531 1.691406 -2.632812 1.390625 -3.34375 C 1.085938 -4.0625 0.9375 -4.84375 0.9375 -5.6875 C 0.9375 -6.601562 1.109375 -7.472656 1.453125 -8.296875 C 1.804688 -9.117188 2.316406 -9.84375 2.984375 -10.46875 C 3.648438 -11.101562 4.46875 -11.609375 5.4375 -11.984375 C 6.414062 -12.359375 7.53125 -12.546875 8.78125 -12.546875 C 9.90625 -12.546875 10.890625 -12.367188 11.734375 -12.015625 C 12.585938 -11.671875 13.285156 -11.1875 13.828125 -10.5625 C 14.367188 -9.945312 14.757812 -9.234375 15 -8.421875 C 15.238281 -7.609375 15.316406 -6.726562 15.234375 -5.78125 Z M 11.953125 -5.8125 C 12.003906 -6.332031 11.960938 -6.820312 11.828125 -7.28125 C 11.703125 -7.738281 11.488281 -8.140625 11.1875 -8.484375 C 10.894531 -8.828125 10.519531 -9.097656 10.0625 -9.296875 C 9.613281 -9.492188 9.082031 -9.59375 8.46875 -9.59375 C 7.800781 -9.59375 7.207031 -9.488281 6.6875 -9.28125 C 6.164062 -9.070312 5.71875 -8.800781 5.34375 -8.46875 C 4.976562 -8.132812 4.695312 -7.742188 4.5 -7.296875 C 4.3125 -6.859375 4.21875 -6.410156 4.21875 -5.953125 C 4.21875 -4.972656 4.546875 -4.175781 5.203125 -3.5625 C 5.859375 -2.957031 6.738281 -2.65625 7.84375 -2.65625 C 8.46875 -2.65625 9.019531 -2.734375 9.5 -2.890625 C 9.976562 -3.054688 10.394531 -3.285156 10.75 -3.578125 C 11.101562 -3.867188 11.378906 -4.203125 11.578125 -4.578125 C 11.773438 -4.960938 11.898438 -5.375 11.953125 -5.8125 Z M 11.953125 -5.8125 "/></g></g></g><g fill="#ffffff" fill-opacity="1"><g transform="translate(127.455982, 210.180075)"><g><path d="M 15.453125 -7.734375 C 15.453125 -6.285156 15.21875 -5.066406 14.75 -4.078125 C 14.28125 -3.085938 13.628906 -2.3125 12.796875 -1.75 C 11.960938 -1.1875 10.988281 -0.84375 9.875 -0.71875 C 8.757812 -0.59375 7.5625 -0.671875 6.28125 -0.953125 C 5.851562 -1.054688 5.5625 -1.269531 5.40625 -1.59375 C 5.257812 -1.925781 5.21875 -2.265625 5.28125 -2.609375 C 5.34375 -2.953125 5.492188 -3.242188 5.734375 -3.484375 C 5.972656 -3.722656 6.269531 -3.800781 6.625 -3.71875 C 8.414062 -3.289062 9.78125 -3.40625 10.71875 -4.0625 C 11.664062 -4.71875 12.140625 -5.90625 12.140625 -7.625 C 12.140625 -8.039062 12.050781 -8.40625 11.875 -8.71875 C 11.695312 -9.03125 11.460938 -9.269531 11.171875 -9.4375 C 10.890625 -9.613281 10.550781 -9.710938 10.15625 -9.734375 C 9.769531 -9.753906 9.359375 -9.691406 8.921875 -9.546875 C 7.453125 -9.054688 6.382812 -8.234375 5.71875 -7.078125 C 5.0625 -5.929688 4.695312 -4.476562 4.625 -2.71875 C 4.613281 -2.3125 4.613281 -1.929688 4.625 -1.578125 C 4.644531 -1.234375 4.671875 -0.890625 4.703125 -0.546875 C 4.734375 -0.210938 4.769531 0.117188 4.8125 0.453125 C 4.851562 0.785156 4.894531 1.15625 4.9375 1.5625 C 4.96875 1.8125 4.914062 2.03125 4.78125 2.21875 C 4.644531 2.40625 4.460938 2.550781 4.234375 2.65625 C 4.003906 2.757812 3.753906 2.820312 3.484375 2.84375 C 3.210938 2.863281 2.957031 2.84375 2.71875 2.78125 C 2.476562 2.71875 2.269531 2.613281 2.09375 2.46875 C 1.914062 2.320312 1.8125 2.128906 1.78125 1.890625 C 1.664062 0.960938 1.570312 -0.0390625 1.5 -1.125 C 1.425781 -2.21875 1.367188 -3.316406 1.328125 -4.421875 C 1.285156 -5.535156 1.265625 -6.628906 1.265625 -7.703125 C 1.265625 -8.796875 1.273438 -9.796875 1.296875 -10.703125 C 1.296875 -10.972656 1.382812 -11.195312 1.5625 -11.375 C 1.75 -11.5625 1.96875 -11.703125 2.21875 -11.796875 C 2.476562 -11.898438 2.753906 -11.953125 3.046875 -11.953125 C 3.347656 -11.960938 3.625 -11.925781 3.875 -11.84375 C 4.125 -11.757812 4.328125 -11.628906 4.484375 -11.453125 C 4.648438 -11.285156 4.71875 -11.066406 4.6875 -10.796875 C 4.644531 -10.472656 4.625 -10.160156 4.625 -9.859375 C 4.625 -9.578125 4.632812 -9.332031 4.65625 -9.125 C 4.800781 -9.425781 4.992188 -9.734375 5.234375 -10.046875 C 5.472656 -10.359375 5.75 -10.648438 6.0625 -10.921875 C 6.375 -11.191406 6.703125 -11.4375 7.046875 -11.65625 C 7.398438 -11.882812 7.769531 -12.054688 8.15625 -12.171875 C 8.988281 -12.421875 9.835938 -12.546875 10.703125 -12.546875 C 11.566406 -12.546875 12.347656 -12.378906 13.046875 -12.046875 C 13.753906 -11.710938 14.332031 -11.195312 14.78125 -10.5 C 15.226562 -9.800781 15.453125 -8.878906 15.453125 -7.734375 Z M 15.453125 -7.734375 "/></g></g></g><g fill="#ffffff" fill-opacity="1"><g transform="translate(143.440001, 210.180075)"><g><path d="M 12.125 -9.078125 C 11.8125 -9.003906 11.425781 -8.941406 10.96875 -8.890625 C 10.519531 -8.847656 9.992188 -8.804688 9.390625 -8.765625 C 9.398438 -8.046875 9.425781 -7.335938 9.46875 -6.640625 C 9.507812 -5.941406 9.566406 -5.269531 9.640625 -4.625 C 9.710938 -3.988281 9.800781 -3.398438 9.90625 -2.859375 C 10.019531 -2.316406 10.148438 -1.835938 10.296875 -1.421875 C 10.453125 -0.972656 10.398438 -0.597656 10.140625 -0.296875 C 9.878906 -0.00390625 9.539062 0.191406 9.125 0.296875 C 8.71875 0.398438 8.304688 0.390625 7.890625 0.265625 C 7.472656 0.148438 7.1875 -0.113281 7.03125 -0.53125 C 6.875 -0.945312 6.738281 -1.445312 6.625 -2.03125 C 6.507812 -2.625 6.40625 -3.273438 6.3125 -3.984375 C 6.226562 -4.703125 6.160156 -5.453125 6.109375 -6.234375 C 6.066406 -7.023438 6.039062 -7.8125 6.03125 -8.59375 C 4.101562 -8.53125 2.53125 -8.53125 1.3125 -8.59375 C 0.882812 -8.625 0.566406 -8.800781 0.359375 -9.125 C 0.148438 -9.457031 0.046875 -9.804688 0.046875 -10.171875 C 0.046875 -10.554688 0.140625 -10.898438 0.328125 -11.203125 C 0.523438 -11.503906 0.816406 -11.648438 1.203125 -11.640625 C 1.898438 -11.609375 2.632812 -11.59375 3.40625 -11.59375 C 4.1875 -11.601562 5.0625 -11.625 6.03125 -11.65625 C 6.0625 -12.238281 6.085938 -12.753906 6.109375 -13.203125 C 6.128906 -13.660156 6.164062 -14.066406 6.21875 -14.421875 C 6.257812 -14.859375 6.476562 -15.175781 6.875 -15.375 C 7.269531 -15.570312 7.675781 -15.65625 8.09375 -15.625 C 8.519531 -15.59375 8.894531 -15.453125 9.21875 -15.203125 C 9.550781 -14.953125 9.6875 -14.613281 9.625 -14.1875 C 9.570312 -13.882812 9.53125 -13.539062 9.5 -13.15625 C 9.46875 -12.769531 9.445312 -12.335938 9.4375 -11.859375 C 10.300781 -11.898438 11.039062 -11.972656 11.65625 -12.078125 C 12.0625 -12.117188 12.382812 -12.003906 12.625 -11.734375 C 12.863281 -11.460938 13.015625 -11.140625 13.078125 -10.765625 C 13.140625 -10.398438 13.09375 -10.046875 12.9375 -9.703125 C 12.789062 -9.359375 12.519531 -9.148438 12.125 -9.078125 Z M 12.125 -9.078125 "/></g></g></g><g fill="#ffffff" fill-opacity="1"><g transform="translate(155.968019, 210.180075)"><g><path d="M 17.09375 -2.640625 C 17.394531 -2.523438 17.585938 -2.289062 17.671875 -1.9375 C 17.765625 -1.59375 17.753906 -1.25 17.640625 -0.90625 C 17.523438 -0.5625 17.3125 -0.273438 17 -0.046875 C 16.6875 0.171875 16.273438 0.203125 15.765625 0.046875 C 14.898438 -0.222656 14.242188 -0.640625 13.796875 -1.203125 C 13.347656 -1.773438 13.078125 -2.523438 12.984375 -3.453125 C 12.203125 -2.203125 11.273438 -1.289062 10.203125 -0.71875 C 9.128906 -0.144531 7.878906 0.195312 6.453125 0.3125 C 5.578125 0.375 4.796875 0.289062 4.109375 0.0625 C 3.421875 -0.15625 2.835938 -0.492188 2.359375 -0.953125 C 1.890625 -1.421875 1.535156 -1.992188 1.296875 -2.671875 C 1.066406 -3.359375 0.972656 -4.128906 1.015625 -4.984375 C 1.046875 -5.929688 1.265625 -6.859375 1.671875 -7.765625 C 2.078125 -8.671875 2.628906 -9.472656 3.328125 -10.171875 C 4.035156 -10.878906 4.875 -11.445312 5.84375 -11.875 C 6.820312 -12.3125 7.898438 -12.53125 9.078125 -12.53125 C 9.734375 -12.53125 10.300781 -12.484375 10.78125 -12.390625 C 11.257812 -12.304688 11.65625 -12.1875 11.96875 -12.03125 C 12.375 -11.820312 12.613281 -11.539062 12.6875 -11.1875 C 12.757812 -10.832031 12.734375 -10.492188 12.609375 -10.171875 C 12.492188 -9.859375 12.304688 -9.609375 12.046875 -9.421875 C 11.785156 -9.234375 11.53125 -9.195312 11.28125 -9.3125 C 10.675781 -9.582031 9.992188 -9.71875 9.234375 -9.71875 C 8.597656 -9.71875 7.988281 -9.597656 7.40625 -9.359375 C 6.820312 -9.117188 6.304688 -8.789062 5.859375 -8.375 C 5.410156 -7.957031 5.050781 -7.472656 4.78125 -6.921875 C 4.507812 -6.367188 4.351562 -5.773438 4.3125 -5.140625 C 4.28125 -4.273438 4.46875 -3.632812 4.875 -3.21875 C 5.289062 -2.8125 5.898438 -2.648438 6.703125 -2.734375 C 7.109375 -2.765625 7.550781 -2.863281 8.03125 -3.03125 C 8.519531 -3.195312 9.003906 -3.453125 9.484375 -3.796875 C 9.960938 -4.140625 10.429688 -4.582031 10.890625 -5.125 C 11.359375 -5.675781 11.785156 -6.351562 12.171875 -7.15625 C 12.234375 -7.28125 12.304688 -7.460938 12.390625 -7.703125 C 12.484375 -7.941406 12.578125 -8.203125 12.671875 -8.484375 C 12.765625 -8.773438 12.851562 -9.066406 12.9375 -9.359375 C 13.019531 -9.660156 13.082031 -9.929688 13.125 -10.171875 C 13.1875 -10.492188 13.316406 -10.738281 13.515625 -10.90625 C 13.722656 -11.070312 13.953125 -11.175781 14.203125 -11.21875 C 14.460938 -11.269531 14.726562 -11.269531 15 -11.21875 C 15.269531 -11.164062 15.507812 -11.054688 15.71875 -10.890625 C 15.925781 -10.734375 16.082031 -10.535156 16.1875 -10.296875 C 16.289062 -10.066406 16.296875 -9.800781 16.203125 -9.5 C 15.878906 -8.414062 15.65625 -7.476562 15.53125 -6.6875 C 15.40625 -5.894531 15.378906 -5.222656 15.453125 -4.671875 C 15.535156 -4.128906 15.710938 -3.691406 15.984375 -3.359375 C 16.253906 -3.035156 16.625 -2.796875 17.09375 -2.640625 Z M 17.09375 -2.640625 "/></g></g></g><g fill="#ffffff" fill-opacity="1"><g transform="translate(173.248053, 210.180075)"><g/></g></g><g fill="#ffffff" fill-opacity="1"><g transform="translate(184.768065, 210.180075)"><g><path d="M 15.546875 -1.421875 C 15.648438 -1.035156 15.570312 -0.710938 15.3125 -0.453125 C 15.050781 -0.203125 14.738281 -0.0351562 14.375 0.046875 C 14.019531 0.140625 13.664062 0.132812 13.3125 0.03125 C 12.96875 -0.0703125 12.738281 -0.289062 12.625 -0.625 C 12.5 -1.039062 12.398438 -1.46875 12.328125 -1.90625 C 12.253906 -2.34375 12.203125 -2.785156 12.171875 -3.234375 C 11.972656 -2.753906 11.722656 -2.304688 11.421875 -1.890625 C 11.128906 -1.472656 10.769531 -1.109375 10.34375 -0.796875 C 9.914062 -0.492188 9.40625 -0.242188 8.8125 -0.046875 C 8.21875 0.140625 7.53125 0.257812 6.75 0.3125 C 5.769531 0.363281 4.9375 0.257812 4.25 0 C 3.570312 -0.269531 3.015625 -0.648438 2.578125 -1.140625 C 2.148438 -1.640625 1.835938 -2.222656 1.640625 -2.890625 C 1.441406 -3.554688 1.328125 -4.253906 1.296875 -4.984375 C 1.273438 -5.546875 1.28125 -6.125 1.3125 -6.71875 C 1.351562 -7.3125 1.40625 -7.882812 1.46875 -8.4375 C 1.539062 -9 1.632812 -9.523438 1.75 -10.015625 C 1.863281 -10.503906 1.976562 -10.914062 2.09375 -11.25 C 2.1875 -11.5625 2.34375 -11.796875 2.5625 -11.953125 C 2.789062 -12.109375 3.035156 -12.210938 3.296875 -12.265625 C 3.566406 -12.316406 3.835938 -12.304688 4.109375 -12.234375 C 4.378906 -12.171875 4.617188 -12.066406 4.828125 -11.921875 C 5.035156 -11.785156 5.1875 -11.609375 5.28125 -11.390625 C 5.375 -11.171875 5.378906 -10.914062 5.296875 -10.625 C 5.078125 -9.832031 4.894531 -8.96875 4.75 -8.03125 C 4.601562 -7.101562 4.539062 -6.140625 4.5625 -5.140625 C 4.5625 -4.816406 4.613281 -4.503906 4.71875 -4.203125 C 4.820312 -3.910156 4.972656 -3.648438 5.171875 -3.421875 C 5.367188 -3.203125 5.617188 -3.03125 5.921875 -2.90625 C 6.234375 -2.78125 6.585938 -2.722656 6.984375 -2.734375 C 7.398438 -2.753906 7.800781 -2.828125 8.1875 -2.953125 C 8.582031 -3.078125 8.957031 -3.28125 9.3125 -3.5625 C 9.675781 -3.84375 10.019531 -4.203125 10.34375 -4.640625 C 10.664062 -5.078125 10.945312 -5.625 11.1875 -6.28125 C 11.3125 -6.601562 11.398438 -6.96875 11.453125 -7.375 C 11.515625 -7.78125 11.5625 -8.203125 11.59375 -8.640625 C 11.625 -9.085938 11.640625 -9.519531 11.640625 -9.9375 C 11.640625 -10.363281 11.640625 -10.753906 11.640625 -11.109375 C 11.640625 -11.378906 11.722656 -11.609375 11.890625 -11.796875 C 12.054688 -11.984375 12.265625 -12.117188 12.515625 -12.203125 C 12.765625 -12.296875 13.035156 -12.335938 13.328125 -12.328125 C 13.628906 -12.316406 13.898438 -12.257812 14.140625 -12.15625 C 14.378906 -12.050781 14.578125 -11.894531 14.734375 -11.6875 C 14.890625 -11.476562 14.960938 -11.210938 14.953125 -10.890625 C 14.921875 -10.191406 14.898438 -9.4375 14.890625 -8.625 C 14.878906 -7.820312 14.894531 -7 14.9375 -6.15625 C 14.976562 -5.3125 15.046875 -4.484375 15.140625 -3.671875 C 15.234375 -2.867188 15.367188 -2.117188 15.546875 -1.421875 Z M 15.546875 -1.421875 "/></g></g></g><g fill="#ffffff" fill-opacity="1"><g transform="translate(200.752084, 210.180075)"><g><path d="M 15.953125 -6.1875 C 15.953125 -5.550781 15.925781 -4.765625 15.875 -3.828125 C 15.820312 -2.890625 15.710938 -1.96875 15.546875 -1.0625 C 15.472656 -0.613281 15.242188 -0.289062 14.859375 -0.09375 C 14.484375 0.09375 14.085938 0.164062 13.671875 0.125 C 13.265625 0.09375 12.90625 -0.0351562 12.59375 -0.265625 C 12.28125 -0.503906 12.15625 -0.820312 12.21875 -1.21875 C 12.28125 -1.632812 12.332031 -2.070312 12.375 -2.53125 C 12.425781 -2.988281 12.46875 -3.4375 12.5 -3.875 C 12.53125 -4.3125 12.550781 -4.722656 12.5625 -5.109375 C 12.582031 -5.492188 12.59375 -5.820312 12.59375 -6.09375 C 12.59375 -6.75 12.550781 -7.273438 12.46875 -7.671875 C 12.394531 -8.078125 12.28125 -8.394531 12.125 -8.625 C 11.976562 -8.851562 11.785156 -9.007812 11.546875 -9.09375 C 11.304688 -9.175781 11.023438 -9.21875 10.703125 -9.21875 C 10.109375 -9.21875 9.503906 -9.066406 8.890625 -8.765625 C 8.273438 -8.472656 7.703125 -8.085938 7.171875 -7.609375 C 6.648438 -7.128906 6.195312 -6.585938 5.8125 -5.984375 C 5.425781 -5.390625 5.160156 -4.785156 5.015625 -4.171875 C 4.921875 -3.773438 4.851562 -3.320312 4.8125 -2.8125 C 4.769531 -2.300781 4.78125 -1.800781 4.84375 -1.3125 C 4.894531 -0.882812 4.765625 -0.546875 4.453125 -0.296875 C 4.140625 -0.046875 3.773438 0.09375 3.359375 0.125 C 2.941406 0.15625 2.550781 0.0820312 2.1875 -0.09375 C 1.832031 -0.269531 1.628906 -0.578125 1.578125 -1.015625 C 1.441406 -2.523438 1.34375 -4.113281 1.28125 -5.78125 C 1.226562 -7.445312 1.265625 -9.144531 1.390625 -10.875 C 1.410156 -11.144531 1.507812 -11.367188 1.6875 -11.546875 C 1.875 -11.722656 2.097656 -11.847656 2.359375 -11.921875 C 2.628906 -12.003906 2.910156 -12.035156 3.203125 -12.015625 C 3.492188 -12.003906 3.757812 -11.941406 4 -11.828125 C 4.25 -11.710938 4.445312 -11.554688 4.59375 -11.359375 C 4.75 -11.160156 4.800781 -10.910156 4.75 -10.609375 C 4.71875 -10.335938 4.679688 -10.046875 4.640625 -9.734375 C 4.597656 -9.429688 4.5625 -9.019531 4.53125 -8.5 C 5.601562 -9.914062 6.695312 -10.941406 7.8125 -11.578125 C 8.925781 -12.210938 10.128906 -12.53125 11.421875 -12.53125 C 12.273438 -12.53125 12.988281 -12.390625 13.5625 -12.109375 C 14.132812 -11.828125 14.597656 -11.414062 14.953125 -10.875 C 15.304688 -10.34375 15.5625 -9.679688 15.71875 -8.890625 C 15.875 -8.097656 15.953125 -7.195312 15.953125 -6.1875 Z M 15.953125 -6.1875 "/></g></g></g><g fill="#ffffff" fill-opacity="1"><g transform="translate(217.504104, 210.180075)"><g/></g></g><g fill="#ffffff" fill-opacity="1"><g transform="translate(229.024116, 210.180075)"><g><path d="M 18.890625 -6.90625 C 19.078125 -6.414062 19.171875 -5.898438 19.171875 -5.359375 C 19.171875 -4.828125 19.070312 -4.304688 18.875 -3.796875 C 18.6875 -3.285156 18.398438 -2.796875 18.015625 -2.328125 C 17.640625 -1.859375 17.15625 -1.453125 16.5625 -1.109375 C 15.875 -0.703125 14.976562 -0.351562 13.875 -0.0625 C 12.78125 0.21875 11.644531 0.359375 10.46875 0.359375 C 9.007812 0.359375 7.695312 0.234375 6.53125 -0.015625 C 5.363281 -0.265625 4.367188 -0.664062 3.546875 -1.21875 C 2.734375 -1.769531 2.109375 -2.476562 1.671875 -3.34375 C 1.234375 -4.21875 1.015625 -5.269531 1.015625 -6.5 C 1.015625 -7.695312 1.3125 -8.898438 1.90625 -10.109375 C 2.507812 -11.316406 3.347656 -12.410156 4.421875 -13.390625 C 5.492188 -14.378906 6.769531 -15.207031 8.25 -15.875 C 9.738281 -16.539062 11.375 -16.929688 13.15625 -17.046875 C 13.664062 -17.078125 14.0625 -16.929688 14.34375 -16.609375 C 14.632812 -16.285156 14.800781 -15.921875 14.84375 -15.515625 C 14.882812 -15.109375 14.800781 -14.722656 14.59375 -14.359375 C 14.382812 -14.003906 14.039062 -13.800781 13.5625 -13.75 C 12.15625 -13.601562 10.894531 -13.28125 9.78125 -12.78125 C 8.664062 -12.289062 7.722656 -11.707031 6.953125 -11.03125 C 6.191406 -10.351562 5.601562 -9.613281 5.1875 -8.8125 C 4.78125 -8.019531 4.578125 -7.25 4.578125 -6.5 C 4.578125 -5.832031 4.71875 -5.257812 5 -4.78125 C 5.28125 -4.300781 5.675781 -3.90625 6.1875 -3.59375 C 6.695312 -3.289062 7.3125 -3.066406 8.03125 -2.921875 C 8.757812 -2.785156 9.570312 -2.71875 10.46875 -2.71875 C 10.832031 -2.71875 11.210938 -2.75 11.609375 -2.8125 C 12.015625 -2.875 12.410156 -2.953125 12.796875 -3.046875 C 13.191406 -3.140625 13.5625 -3.253906 13.90625 -3.390625 C 14.25 -3.523438 14.550781 -3.664062 14.8125 -3.8125 C 15.144531 -4.007812 15.382812 -4.226562 15.53125 -4.46875 C 15.675781 -4.707031 15.75 -4.929688 15.75 -5.140625 C 15.75 -5.359375 15.679688 -5.539062 15.546875 -5.6875 C 15.410156 -5.832031 15.21875 -5.90625 14.96875 -5.90625 C 14.6875 -5.90625 14.320312 -5.863281 13.875 -5.78125 C 13.4375 -5.695312 12.976562 -5.59375 12.5 -5.46875 C 12.019531 -5.34375 11.539062 -5.195312 11.0625 -5.03125 C 10.582031 -4.875 10.160156 -4.707031 9.796875 -4.53125 C 9.410156 -4.351562 9.054688 -4.359375 8.734375 -4.546875 C 8.410156 -4.742188 8.171875 -5.015625 8.015625 -5.359375 C 7.859375 -5.703125 7.8125 -6.070312 7.875 -6.46875 C 7.945312 -6.863281 8.203125 -7.164062 8.640625 -7.375 C 9.054688 -7.582031 9.546875 -7.773438 10.109375 -7.953125 C 10.679688 -8.140625 11.269531 -8.300781 11.875 -8.4375 C 12.488281 -8.582031 13.097656 -8.695312 13.703125 -8.78125 C 14.304688 -8.863281 14.851562 -8.90625 15.34375 -8.90625 C 16.25 -8.90625 17 -8.75 17.59375 -8.4375 C 18.1875 -8.132812 18.617188 -7.625 18.890625 -6.90625 Z M 18.890625 -6.90625 "/></g></g></g><g fill="#ffffff" fill-opacity="1"><g transform="translate(248.632147, 210.180075)"><g><path d="M 17.09375 -2.640625 C 17.394531 -2.523438 17.585938 -2.289062 17.671875 -1.9375 C 17.765625 -1.59375 17.753906 -1.25 17.640625 -0.90625 C 17.523438 -0.5625 17.3125 -0.273438 17 -0.046875 C 16.6875 0.171875 16.273438 0.203125 15.765625 0.046875 C 14.898438 -0.222656 14.242188 -0.640625 13.796875 -1.203125 C 13.347656 -1.773438 13.078125 -2.523438 12.984375 -3.453125 C 12.203125 -2.203125 11.273438 -1.289062 10.203125 -0.71875 C 9.128906 -0.144531 7.878906 0.195312 6.453125 0.3125 C 5.578125 0.375 4.796875 0.289062 4.109375 0.0625 C 3.421875 -0.15625 2.835938 -0.492188 2.359375 -0.953125 C 1.890625 -1.421875 1.535156 -1.992188 1.296875 -2.671875 C 1.066406 -3.359375 0.972656 -4.128906 1.015625 -4.984375 C 1.046875 -5.929688 1.265625 -6.859375 1.671875 -7.765625 C 2.078125 -8.671875 2.628906 -9.472656 3.328125 -10.171875 C 4.035156 -10.878906 4.875 -11.445312 5.84375 -11.875 C 6.820312 -12.3125 7.898438 -12.53125 9.078125 -12.53125 C 9.734375 -12.53125 10.300781 -12.484375 10.78125 -12.390625 C 11.257812 -12.304688 11.65625 -12.1875 11.96875 -12.03125 C 12.375 -11.820312 12.613281 -11.539062 12.6875 -11.1875 C 12.757812 -10.832031 12.734375 -10.492188 12.609375 -10.171875 C 12.492188 -9.859375 12.304688 -9.609375 12.046875 -9.421875 C 11.785156 -9.234375 11.53125 -9.195312 11.28125 -9.3125 C 10.675781 -9.582031 9.992188 -9.71875 9.234375 -9.71875 C 8.597656 -9.71875 7.988281 -9.597656 7.40625 -9.359375 C 6.820312 -9.117188 6.304688 -8.789062 5.859375 -8.375 C 5.410156 -7.957031 5.050781 -7.472656 4.78125 -6.921875 C 4.507812 -6.367188 4.351562 -5.773438 4.3125 -5.140625 C 4.28125 -4.273438 4.46875 -3.632812 4.875 -3.21875 C 5.289062 -2.8125 5.898438 -2.648438 6.703125 -2.734375 C 7.109375 -2.765625 7.550781 -2.863281 8.03125 -3.03125 C 8.519531 -3.195312 9.003906 -3.453125 9.484375 -3.796875 C 9.960938 -4.140625 10.429688 -4.582031 10.890625 -5.125 C 11.359375 -5.675781 11.785156 -6.351562 12.171875 -7.15625 C 12.234375 -7.28125 12.304688 -7.460938 12.390625 -7.703125 C 12.484375 -7.941406 12.578125 -8.203125 12.671875 -8.484375 C 12.765625 -8.773438 12.851562 -9.066406 12.9375 -9.359375 C 13.019531 -9.660156 13.082031 -9.929688 13.125 -10.171875 C 13.1875 -10.492188 13.316406 -10.738281 13.515625 -10.90625 C 13.722656 -11.070312 13.953125 -11.175781 14.203125 -11.21875 C 14.460938 -11.269531 14.726562 -11.269531 15 -11.21875 C 15.269531 -11.164062 15.507812 -11.054688 15.71875 -10.890625 C 15.925781 -10.734375 16.082031 -10.535156 16.1875 -10.296875 C 16.289062 -10.066406 16.296875 -9.800781 16.203125 -9.5 C 15.878906 -8.414062 15.65625 -7.476562 15.53125 -6.6875 C 15.40625 -5.894531 15.378906 -5.222656 15.453125 -4.671875 C 15.535156 -4.128906 15.710938 -3.691406 15.984375 -3.359375 C 16.253906 -3.035156 16.625 -2.796875 17.09375 -2.640625 Z M 17.09375 -2.640625 "/></g></g></g><g fill="#ffffff" fill-opacity="1"><g transform="translate(265.912186, 210.180075)"><g><path d="M 12.125 -9.078125 C 11.8125 -9.003906 11.425781 -8.941406 10.96875 -8.890625 C 10.519531 -8.847656 9.992188 -8.804688 9.390625 -8.765625 C 9.398438 -8.046875 9.425781 -7.335938 9.46875 -6.640625 C 9.507812 -5.941406 9.566406 -5.269531 9.640625 -4.625 C 9.710938 -3.988281 9.800781 -3.398438 9.90625 -2.859375 C 10.019531 -2.316406 10.148438 -1.835938 10.296875 -1.421875 C 10.453125 -0.972656 10.398438 -0.597656 10.140625 -0.296875 C 9.878906 -0.00390625 9.539062 0.191406 9.125 0.296875 C 8.71875 0.398438 8.304688 0.390625 7.890625 0.265625 C 7.472656 0.148438 7.1875 -0.113281 7.03125 -0.53125 C 6.875 -0.945312 6.738281 -1.445312 6.625 -2.03125 C 6.507812 -2.625 6.40625 -3.273438 6.3125 -3.984375 C 6.226562 -4.703125 6.160156 -5.453125 6.109375 -6.234375 C 6.066406 -7.023438 6.039062 -7.8125 6.03125 -8.59375 C 4.101562 -8.53125 2.53125 -8.53125 1.3125 -8.59375 C 0.882812 -8.625 0.566406 -8.800781 0.359375 -9.125 C 0.148438 -9.457031 0.046875 -9.804688 0.046875 -10.171875 C 0.046875 -10.554688 0.140625 -10.898438 0.328125 -11.203125 C 0.523438 -11.503906 0.816406 -11.648438 1.203125 -11.640625 C 1.898438 -11.609375 2.632812 -11.59375 3.40625 -11.59375 C 4.1875 -11.601562 5.0625 -11.625 6.03125 -11.65625 C 6.0625 -12.238281 6.085938 -12.753906 6.109375 -13.203125 C 6.128906 -13.660156 6.164062 -14.066406 6.21875 -14.421875 C 6.257812 -14.859375 6.476562 -15.175781 6.875 -15.375 C 7.269531 -15.570312 7.675781 -15.65625 8.09375 -15.625 C 8.519531 -15.59375 8.894531 -15.453125 9.21875 -15.203125 C 9.550781 -14.953125 9.6875 -14.613281 9.625 -14.1875 C 9.570312 -13.882812 9.53125 -13.539062 9.5 -13.15625 C 9.46875 -12.769531 9.445312 -12.335938 9.4375 -11.859375 C 10.300781 -11.898438 11.039062 -11.972656 11.65625 -12.078125 C 12.0625 -12.117188 12.382812 -12.003906 12.625 -11.734375 C 12.863281 -11.460938 13.015625 -11.140625 13.078125 -10.765625 C 13.140625 -10.398438 13.09375 -10.046875 12.9375 -9.703125 C 12.789062 -9.359375 12.519531 -9.148438 12.125 -9.078125 Z M 12.125 -9.078125 "/></g></g></g><g fill="#ffffff" fill-opacity="1"><g transform="translate(278.440215, 210.180075)"><g><path d="M 5.953125 -15.34375 C 5.953125 -14.78125 5.757812 -14.304688 5.375 -13.921875 C 4.988281 -13.535156 4.515625 -13.34375 3.953125 -13.34375 C 3.398438 -13.34375 2.929688 -13.535156 2.546875 -13.921875 C 2.160156 -14.304688 1.96875 -14.78125 1.96875 -15.34375 C 1.96875 -15.894531 2.160156 -16.363281 2.546875 -16.75 C 2.929688 -17.132812 3.398438 -17.328125 3.953125 -17.328125 C 4.515625 -17.328125 4.988281 -17.132812 5.375 -16.75 C 5.757812 -16.363281 5.953125 -15.894531 5.953125 -15.34375 Z M 5.1875 -10.296875 C 4.988281 -8.953125 4.878906 -7.492188 4.859375 -5.921875 C 4.835938 -4.359375 4.878906 -2.800781 4.984375 -1.25 C 5.003906 -0.957031 4.9375 -0.707031 4.78125 -0.5 C 4.632812 -0.289062 4.441406 -0.128906 4.203125 -0.015625 C 3.960938 0.0859375 3.695312 0.144531 3.40625 0.15625 C 3.113281 0.175781 2.835938 0.144531 2.578125 0.0625 C 2.328125 -0.0078125 2.109375 -0.132812 1.921875 -0.3125 C 1.742188 -0.488281 1.644531 -0.722656 1.625 -1.015625 C 1.5 -2.847656 1.445312 -4.539062 1.46875 -6.09375 C 1.5 -7.644531 1.601562 -9.125 1.78125 -10.53125 C 1.8125 -10.820312 1.921875 -11.054688 2.109375 -11.234375 C 2.304688 -11.421875 2.539062 -11.554688 2.8125 -11.640625 C 3.082031 -11.722656 3.363281 -11.742188 3.65625 -11.703125 C 3.957031 -11.671875 4.226562 -11.597656 4.46875 -11.484375 C 4.707031 -11.378906 4.894531 -11.226562 5.03125 -11.03125 C 5.175781 -10.832031 5.226562 -10.585938 5.1875 -10.296875 Z M 5.1875 -10.296875 "/></g></g></g><g fill="#ffffff" fill-opacity="1"><g transform="translate(284.84822, 210.180075)"><g><path d="M 12.125 -9.078125 C 11.8125 -9.003906 11.425781 -8.941406 10.96875 -8.890625 C 10.519531 -8.847656 9.992188 -8.804688 9.390625 -8.765625 C 9.398438 -8.046875 9.425781 -7.335938 9.46875 -6.640625 C 9.507812 -5.941406 9.566406 -5.269531 9.640625 -4.625 C 9.710938 -3.988281 9.800781 -3.398438 9.90625 -2.859375 C 10.019531 -2.316406 10.148438 -1.835938 10.296875 -1.421875 C 10.453125 -0.972656 10.398438 -0.597656 10.140625 -0.296875 C 9.878906 -0.00390625 9.539062 0.191406 9.125 0.296875 C 8.71875 0.398438 8.304688 0.390625 7.890625 0.265625 C 7.472656 0.148438 7.1875 -0.113281 7.03125 -0.53125 C 6.875 -0.945312 6.738281 -1.445312 6.625 -2.03125 C 6.507812 -2.625 6.40625 -3.273438 6.3125 -3.984375 C 6.226562 -4.703125 6.160156 -5.453125 6.109375 -6.234375 C 6.066406 -7.023438 6.039062 -7.8125 6.03125 -8.59375 C 4.101562 -8.53125 2.53125 -8.53125 1.3125 -8.59375 C 0.882812 -8.625 0.566406 -8.800781 0.359375 -9.125 C 0.148438 -9.457031 0.046875 -9.804688 0.046875 -10.171875 C 0.046875 -10.554688 0.140625 -10.898438 0.328125 -11.203125 C 0.523438 -11.503906 0.816406 -11.648438 1.203125 -11.640625 C 1.898438 -11.609375 2.632812 -11.59375 3.40625 -11.59375 C 4.1875 -11.601562 5.0625 -11.625 6.03125 -11.65625 C 6.0625 -12.238281 6.085938 -12.753906 6.109375 -13.203125 C 6.128906 -13.660156 6.164062 -14.066406 6.21875 -14.421875 C 6.257812 -14.859375 6.476562 -15.175781 6.875 -15.375 C 7.269531 -15.570312 7.675781 -15.65625 8.09375 -15.625 C 8.519531 -15.59375 8.894531 -15.453125 9.21875 -15.203125 C 9.550781 -14.953125 9.6875 -14.613281 9.625 -14.1875 C 9.570312 -13.882812 9.53125 -13.539062 9.5 -13.15625 C 9.46875 -12.769531 9.445312 -12.335938 9.4375 -11.859375 C 10.300781 -11.898438 11.039062 -11.972656 11.65625 -12.078125 C 12.0625 -12.117188 12.382812 -12.003906 12.625 -11.734375 C 12.863281 -11.460938 13.015625 -11.140625 13.078125 -10.765625 C 13.140625 -10.398438 13.09375 -10.046875 12.9375 -9.703125 C 12.789062 -9.359375 12.519531 -9.148438 12.125 -9.078125 Z M 12.125 -9.078125 "/></g></g></g><g fill="#ffffff" fill-opacity="1"><g transform="translate(297.376249, 210.180075)"><g><path d="M 15.234375 -5.78125 C 15.160156 -4.875 14.953125 -4.054688 14.609375 -3.328125 C 14.273438 -2.597656 13.800781 -1.976562 13.1875 -1.46875 C 12.570312 -0.957031 11.816406 -0.5625 10.921875 -0.28125 C 10.023438 0 8.976562 0.140625 7.78125 0.140625 C 6.6875 0.140625 5.710938 0 4.859375 -0.28125 C 4.015625 -0.570312 3.300781 -0.976562 2.71875 -1.5 C 2.132812 -2.019531 1.691406 -2.632812 1.390625 -3.34375 C 1.085938 -4.0625 0.9375 -4.84375 0.9375 -5.6875 C 0.9375 -6.601562 1.109375 -7.472656 1.453125 -8.296875 C 1.804688 -9.117188 2.316406 -9.84375 2.984375 -10.46875 C 3.648438 -11.101562 4.46875 -11.609375 5.4375 -11.984375 C 6.414062 -12.359375 7.53125 -12.546875 8.78125 -12.546875 C 9.90625 -12.546875 10.890625 -12.367188 11.734375 -12.015625 C 12.585938 -11.671875 13.285156 -11.1875 13.828125 -10.5625 C 14.367188 -9.945312 14.757812 -9.234375 15 -8.421875 C 15.238281 -7.609375 15.316406 -6.726562 15.234375 -5.78125 Z M 11.953125 -5.8125 C 12.003906 -6.332031 11.960938 -6.820312 11.828125 -7.28125 C 11.703125 -7.738281 11.488281 -8.140625 11.1875 -8.484375 C 10.894531 -8.828125 10.519531 -9.097656 10.0625 -9.296875 C 9.613281 -9.492188 9.082031 -9.59375 8.46875 -9.59375 C 7.800781 -9.59375 7.207031 -9.488281 6.6875 -9.28125 C 6.164062 -9.070312 5.71875 -8.800781 5.34375 -8.46875 C 4.976562 -8.132812 4.695312 -7.742188 4.5 -7.296875 C 4.3125 -6.859375 4.21875 -6.410156 4.21875 -5.953125 C 4.21875 -4.972656 4.546875 -4.175781 5.203125 -3.5625 C 5.859375 -2.957031 6.738281 -2.65625 7.84375 -2.65625 C 8.46875 -2.65625 9.019531 -2.734375 9.5 -2.890625 C 9.976562 -3.054688 10.394531 -3.285156 10.75 -3.578125 C 11.101562 -3.867188 11.378906 -4.203125 11.578125 -4.578125 C 11.773438 -4.960938 11.898438 -5.375 11.953125 -5.8125 Z M 11.953125 -5.8125 "/></g></g></g><g fill="#ffffff" fill-opacity="1"><g transform="translate(119.324206, 228.930074)"><g><path d="M 14.953125 -2.09375 C 14.304688 -1.351562 13.40625 -0.757812 12.25 -0.3125 C 11.101562 0.132812 9.75 0.359375 8.1875 0.359375 C 7.09375 0.359375 6.101562 0.265625 5.21875 0.078125 C 4.34375 -0.0976562 3.59375 -0.40625 2.96875 -0.84375 C 2.351562 -1.289062 1.875 -1.875 1.53125 -2.59375 C 1.1875 -3.3125 1.015625 -4.207031 1.015625 -5.28125 C 1.015625 -6.332031 1.238281 -7.300781 1.6875 -8.1875 C 2.132812 -9.082031 2.726562 -9.847656 3.46875 -10.484375 C 4.207031 -11.128906 5.0625 -11.628906 6.03125 -11.984375 C 7 -12.347656 8.015625 -12.53125 9.078125 -12.53125 C 9.453125 -12.53125 9.835938 -12.507812 10.234375 -12.46875 C 10.628906 -12.425781 11 -12.367188 11.34375 -12.296875 C 11.695312 -12.222656 12.019531 -12.140625 12.3125 -12.046875 C 12.613281 -11.953125 12.863281 -11.84375 13.0625 -11.71875 C 13.507812 -11.40625 13.753906 -11.039062 13.796875 -10.625 C 13.847656 -10.21875 13.785156 -9.847656 13.609375 -9.515625 C 13.429688 -9.191406 13.175781 -8.945312 12.84375 -8.78125 C 12.507812 -8.625 12.179688 -8.648438 11.859375 -8.859375 C 11.523438 -9.078125 11.128906 -9.242188 10.671875 -9.359375 C 10.210938 -9.484375 9.773438 -9.546875 9.359375 -9.546875 C 8.640625 -9.546875 7.972656 -9.445312 7.359375 -9.25 C 6.753906 -9.050781 6.234375 -8.765625 5.796875 -8.390625 C 5.359375 -8.023438 5.015625 -7.578125 4.765625 -7.046875 C 4.515625 -6.523438 4.390625 -5.9375 4.390625 -5.28125 C 4.390625 -4.800781 4.484375 -4.378906 4.671875 -4.015625 C 4.867188 -3.660156 5.140625 -3.367188 5.484375 -3.140625 C 5.828125 -2.921875 6.226562 -2.753906 6.6875 -2.640625 C 7.15625 -2.523438 7.65625 -2.46875 8.1875 -2.46875 C 9.125 -2.46875 10.003906 -2.644531 10.828125 -3 C 11.660156 -3.351562 12.320312 -3.742188 12.8125 -4.171875 C 13.132812 -4.460938 13.476562 -4.570312 13.84375 -4.5 C 14.21875 -4.425781 14.523438 -4.257812 14.765625 -4 C 15.015625 -3.75 15.175781 -3.441406 15.25 -3.078125 C 15.320312 -2.722656 15.222656 -2.394531 14.953125 -2.09375 Z M 14.953125 -2.09375 "/></g></g></g><g fill="#ffffff" fill-opacity="1"><g transform="translate(134.612232, 228.930074)"><g><path d="M 15.234375 -5.78125 C 15.160156 -4.875 14.953125 -4.054688 14.609375 -3.328125 C 14.273438 -2.597656 13.800781 -1.976562 13.1875 -1.46875 C 12.570312 -0.957031 11.816406 -0.5625 10.921875 -0.28125 C 10.023438 0 8.976562 0.140625 7.78125 0.140625 C 6.6875 0.140625 5.710938 0 4.859375 -0.28125 C 4.015625 -0.570312 3.300781 -0.976562 2.71875 -1.5 C 2.132812 -2.019531 1.691406 -2.632812 1.390625 -3.34375 C 1.085938 -4.0625 0.9375 -4.84375 0.9375 -5.6875 C 0.9375 -6.601562 1.109375 -7.472656 1.453125 -8.296875 C 1.804688 -9.117188 2.316406 -9.84375 2.984375 -10.46875 C 3.648438 -11.101562 4.46875 -11.609375 5.4375 -11.984375 C 6.414062 -12.359375 7.53125 -12.546875 8.78125 -12.546875 C 9.90625 -12.546875 10.890625 -12.367188 11.734375 -12.015625 C 12.585938 -11.671875 13.285156 -11.1875 13.828125 -10.5625 C 14.367188 -9.945312 14.757812 -9.234375 15 -8.421875 C 15.238281 -7.609375 15.316406 -6.726562 15.234375 -5.78125 Z M 11.953125 -5.8125 C 12.003906 -6.332031 11.960938 -6.820312 11.828125 -7.28125 C 11.703125 -7.738281 11.488281 -8.140625 11.1875 -8.484375 C 10.894531 -8.828125 10.519531 -9.097656 10.0625 -9.296875 C 9.613281 -9.492188 9.082031 -9.59375 8.46875 -9.59375 C 7.800781 -9.59375 7.207031 -9.488281 6.6875 -9.28125 C 6.164062 -9.070312 5.71875 -8.800781 5.34375 -8.46875 C 4.976562 -8.132812 4.695312 -7.742188 4.5 -7.296875 C 4.3125 -6.859375 4.21875 -6.410156 4.21875 -5.953125 C 4.21875 -4.972656 4.546875 -4.175781 5.203125 -3.5625 C 5.859375 -2.957031 6.738281 -2.65625 7.84375 -2.65625 C 8.46875 -2.65625 9.019531 -2.734375 9.5 -2.890625 C 9.976562 -3.054688 10.394531 -3.285156 10.75 -3.578125 C 11.101562 -3.867188 11.378906 -4.203125 11.578125 -4.578125 C 11.773438 -4.960938 11.898438 -5.375 11.953125 -5.8125 Z M 11.953125 -5.8125 "/></g></g></g><g fill="#ffffff" fill-opacity="1"><g transform="translate(150.332249, 228.930074)"><g><path d="M 15.953125 -6.1875 C 15.953125 -5.550781 15.925781 -4.765625 15.875 -3.828125 C 15.820312 -2.890625 15.710938 -1.96875 15.546875 -1.0625 C 15.472656 -0.613281 15.242188 -0.289062 14.859375 -0.09375 C 14.484375 0.09375 14.085938 0.164062 13.671875 0.125 C 13.265625 0.09375 12.90625 -0.0351562 12.59375 -0.265625 C 12.28125 -0.503906 12.15625 -0.820312 12.21875 -1.21875 C 12.28125 -1.632812 12.332031 -2.070312 12.375 -2.53125 C 12.425781 -2.988281 12.46875 -3.4375 12.5 -3.875 C 12.53125 -4.3125 12.550781 -4.722656 12.5625 -5.109375 C 12.582031 -5.492188 12.59375 -5.820312 12.59375 -6.09375 C 12.59375 -6.75 12.550781 -7.273438 12.46875 -7.671875 C 12.394531 -8.078125 12.28125 -8.394531 12.125 -8.625 C 11.976562 -8.851562 11.785156 -9.007812 11.546875 -9.09375 C 11.304688 -9.175781 11.023438 -9.21875 10.703125 -9.21875 C 10.109375 -9.21875 9.503906 -9.066406 8.890625 -8.765625 C 8.273438 -8.472656 7.703125 -8.085938 7.171875 -7.609375 C 6.648438 -7.128906 6.195312 -6.585938 5.8125 -5.984375 C 5.425781 -5.390625 5.160156 -4.785156 5.015625 -4.171875 C 4.921875 -3.773438 4.851562 -3.320312 4.8125 -2.8125 C 4.769531 -2.300781 4.78125 -1.800781 4.84375 -1.3125 C 4.894531 -0.882812 4.765625 -0.546875 4.453125 -0.296875 C 4.140625 -0.046875 3.773438 0.09375 3.359375 0.125 C 2.941406 0.15625 2.550781 0.0820312 2.1875 -0.09375 C 1.832031 -0.269531 1.628906 -0.578125 1.578125 -1.015625 C 1.441406 -2.523438 1.34375 -4.113281 1.28125 -5.78125 C 1.226562 -7.445312 1.265625 -9.144531 1.390625 -10.875 C 1.410156 -11.144531 1.507812 -11.367188 1.6875 -11.546875 C 1.875 -11.722656 2.097656 -11.847656 2.359375 -11.921875 C 2.628906 -12.003906 2.910156 -12.035156 3.203125 -12.015625 C 3.492188 -12.003906 3.757812 -11.941406 4 -11.828125 C 4.25 -11.710938 4.445312 -11.554688 4.59375 -11.359375 C 4.75 -11.160156 4.800781 -10.910156 4.75 -10.609375 C 4.71875 -10.335938 4.679688 -10.046875 4.640625 -9.734375 C 4.597656 -9.429688 4.5625 -9.019531 4.53125 -8.5 C 5.601562 -9.914062 6.695312 -10.941406 7.8125 -11.578125 C 8.925781 -12.210938 10.128906 -12.53125 11.421875 -12.53125 C 12.273438 -12.53125 12.988281 -12.390625 13.5625 -12.109375 C 14.132812 -11.828125 14.597656 -11.414062 14.953125 -10.875 C 15.304688 -10.34375 15.5625 -9.679688 15.71875 -8.890625 C 15.875 -8.097656 15.953125 -7.195312 15.953125 -6.1875 Z M 15.953125 -6.1875 "/></g></g></g><g fill="#ffffff" fill-opacity="1"><g transform="translate(167.084272, 228.930074)"><g/></g></g><g fill="#ffffff" fill-opacity="1"><g transform="translate(178.604283, 228.930074)"><g><path d="M 16.625 -2.40625 C 16.800781 -2.082031 16.863281 -1.773438 16.8125 -1.484375 C 16.769531 -1.203125 16.65625 -0.957031 16.46875 -0.75 C 16.289062 -0.539062 16.0625 -0.367188 15.78125 -0.234375 C 15.5 -0.0976562 15.207031 -0.03125 14.90625 -0.03125 C 14.613281 -0.03125 14.335938 -0.09375 14.078125 -0.21875 C 13.828125 -0.34375 13.628906 -0.554688 13.484375 -0.859375 C 13.210938 -1.421875 12.953125 -2 12.703125 -2.59375 C 12.460938 -3.1875 12.21875 -3.800781 11.96875 -4.4375 C 10.613281 -4.351562 9.28125 -4.269531 7.96875 -4.1875 C 6.65625 -4.101562 5.460938 -4.003906 4.390625 -3.890625 C 4.035156 -2.878906 3.722656 -1.921875 3.453125 -1.015625 C 3.359375 -0.691406 3.195312 -0.4375 2.96875 -0.25 C 2.75 -0.0625 2.492188 0.0625 2.203125 0.125 C 1.921875 0.1875 1.632812 0.1875 1.34375 0.125 C 1.050781 0.0703125 0.800781 -0.03125 0.59375 -0.1875 C 0.382812 -0.351562 0.234375 -0.5625 0.140625 -0.8125 C 0.046875 -1.070312 0.046875 -1.378906 0.140625 -1.734375 C 0.441406 -2.941406 0.828125 -4.15625 1.296875 -5.375 C 1.773438 -6.601562 2.28125 -7.789062 2.8125 -8.9375 C 3.351562 -10.082031 3.90625 -11.171875 4.46875 -12.203125 C 5.039062 -13.234375 5.59375 -14.164062 6.125 -15 C 6.570312 -15.707031 7.101562 -16.21875 7.71875 -16.53125 C 8.332031 -16.851562 8.9375 -16.992188 9.53125 -16.953125 C 10.132812 -16.910156 10.679688 -16.691406 11.171875 -16.296875 C 11.660156 -15.898438 12 -15.320312 12.1875 -14.5625 C 12.488281 -13.363281 12.8125 -12.179688 13.15625 -11.015625 C 13.507812 -9.847656 13.898438 -8.6875 14.328125 -7.53125 C 14.691406 -7.550781 15.023438 -7.5625 15.328125 -7.5625 C 15.640625 -7.570312 15.9375 -7.578125 16.21875 -7.578125 C 16.65625 -7.578125 16.984375 -7.425781 17.203125 -7.125 C 17.429688 -6.820312 17.546875 -6.484375 17.546875 -6.109375 C 17.554688 -5.742188 17.460938 -5.40625 17.265625 -5.09375 C 17.078125 -4.78125 16.785156 -4.617188 16.390625 -4.609375 C 16.273438 -4.609375 16.15625 -4.601562 16.03125 -4.59375 C 15.914062 -4.582031 15.75 -4.578125 15.53125 -4.578125 C 15.71875 -4.148438 15.90625 -3.757812 16.09375 -3.40625 C 16.28125 -3.050781 16.457031 -2.71875 16.625 -2.40625 Z M 10.9375 -7.34375 C 10.570312 -8.425781 10.238281 -9.492188 9.9375 -10.546875 C 9.632812 -11.597656 9.347656 -12.695312 9.078125 -13.84375 C 8.492188 -12.90625 7.910156 -11.847656 7.328125 -10.671875 C 6.742188 -9.503906 6.15625 -8.242188 5.5625 -6.890625 C 6.425781 -6.984375 7.296875 -7.066406 8.171875 -7.140625 C 9.054688 -7.210938 9.976562 -7.28125 10.9375 -7.34375 Z M 10.9375 -7.34375 "/></g></g></g><g fill="#ffffff" fill-opacity="1"><g transform="translate(195.716312, 228.930074)"><g><path d="M 20.8125 -1.171875 C 20.8125 -0.722656 20.640625 -0.382812 20.296875 -0.15625 C 19.953125 0.0625 19.570312 0.171875 19.15625 0.171875 C 18.75 0.171875 18.378906 0.0625 18.046875 -0.15625 C 17.710938 -0.375 17.550781 -0.691406 17.5625 -1.109375 C 17.582031 -1.523438 17.585938 -1.984375 17.578125 -2.484375 C 17.566406 -2.984375 17.550781 -3.484375 17.53125 -3.984375 C 17.507812 -4.492188 17.472656 -4.960938 17.421875 -5.390625 C 17.378906 -5.828125 17.332031 -6.179688 17.28125 -6.453125 C 17.164062 -7.015625 17.046875 -7.476562 16.921875 -7.84375 C 16.804688 -8.21875 16.675781 -8.507812 16.53125 -8.71875 C 16.382812 -8.925781 16.21875 -9.066406 16.03125 -9.140625 C 15.84375 -9.222656 15.628906 -9.265625 15.390625 -9.265625 C 15.179688 -9.265625 14.957031 -9.164062 14.71875 -8.96875 C 14.488281 -8.78125 14.265625 -8.53125 14.046875 -8.21875 C 13.835938 -7.90625 13.644531 -7.546875 13.46875 -7.140625 C 13.300781 -6.742188 13.179688 -6.347656 13.109375 -5.953125 C 12.960938 -5.171875 12.875 -4.425781 12.84375 -3.71875 C 12.820312 -3.007812 12.804688 -2.207031 12.796875 -1.3125 C 12.796875 -0.863281 12.625 -0.53125 12.28125 -0.3125 C 11.9375 -0.101562 11.5625 -0.00390625 11.15625 -0.015625 C 10.757812 -0.0234375 10.394531 -0.128906 10.0625 -0.328125 C 9.738281 -0.535156 9.582031 -0.84375 9.59375 -1.25 C 9.613281 -1.664062 9.628906 -2.097656 9.640625 -2.546875 C 9.660156 -3.003906 9.675781 -3.441406 9.6875 -3.859375 C 9.695312 -4.273438 9.703125 -4.671875 9.703125 -5.046875 C 9.703125 -5.410156 9.691406 -5.710938 9.671875 -5.953125 C 9.609375 -6.941406 9.441406 -7.734375 9.171875 -8.328125 C 8.898438 -8.921875 8.554688 -9.21875 8.140625 -9.21875 C 7.898438 -9.21875 7.625 -9.066406 7.3125 -8.765625 C 7 -8.472656 6.6875 -8.085938 6.375 -7.609375 C 6.0625 -7.128906 5.769531 -6.585938 5.5 -5.984375 C 5.238281 -5.390625 5.035156 -4.785156 4.890625 -4.171875 C 4.847656 -3.992188 4.8125 -3.773438 4.78125 -3.515625 C 4.75 -3.265625 4.71875 -3.003906 4.6875 -2.734375 C 4.664062 -2.460938 4.65625 -2.195312 4.65625 -1.9375 C 4.65625 -1.695312 4.664062 -1.488281 4.6875 -1.3125 C 4.726562 -0.882812 4.597656 -0.546875 4.296875 -0.296875 C 3.992188 -0.046875 3.640625 0.09375 3.234375 0.125 C 2.835938 0.15625 2.457031 0.0820312 2.09375 -0.09375 C 1.738281 -0.269531 1.546875 -0.578125 1.515625 -1.015625 C 1.378906 -2.691406 1.296875 -4.316406 1.265625 -5.890625 C 1.234375 -7.460938 1.285156 -9.109375 1.421875 -10.828125 C 1.453125 -11.273438 1.644531 -11.597656 2 -11.796875 C 2.363281 -11.992188 2.75 -12.082031 3.15625 -12.0625 C 3.5625 -12.039062 3.925781 -11.90625 4.25 -11.65625 C 4.582031 -11.40625 4.726562 -11.054688 4.6875 -10.609375 C 4.582031 -9.722656 4.53125 -9.113281 4.53125 -8.78125 C 4.707031 -9.257812 4.929688 -9.722656 5.203125 -10.171875 C 5.472656 -10.617188 5.78125 -11.019531 6.125 -11.375 C 6.46875 -11.726562 6.847656 -12.007812 7.265625 -12.21875 C 7.679688 -12.425781 8.113281 -12.53125 8.5625 -12.53125 C 9.082031 -12.53125 9.519531 -12.425781 9.875 -12.21875 C 10.238281 -12.019531 10.539062 -11.75 10.78125 -11.40625 C 11.019531 -11.0625 11.21875 -10.664062 11.375 -10.21875 C 11.53125 -9.769531 11.664062 -9.300781 11.78125 -8.8125 C 12.019531 -9.46875 12.300781 -10.023438 12.625 -10.484375 C 12.945312 -10.953125 13.28125 -11.335938 13.625 -11.640625 C 13.96875 -11.941406 14.316406 -12.164062 14.671875 -12.3125 C 15.035156 -12.457031 15.382812 -12.53125 15.71875 -12.53125 C 16.28125 -12.53125 16.785156 -12.457031 17.234375 -12.3125 C 17.679688 -12.164062 18.082031 -11.921875 18.4375 -11.578125 C 18.800781 -11.234375 19.125 -10.78125 19.40625 -10.21875 C 19.6875 -9.664062 19.929688 -8.976562 20.140625 -8.15625 C 20.242188 -7.726562 20.335938 -7.238281 20.421875 -6.6875 C 20.515625 -6.144531 20.585938 -5.570312 20.640625 -4.96875 C 20.703125 -4.363281 20.742188 -3.734375 20.765625 -3.078125 C 20.796875 -2.429688 20.8125 -1.796875 20.8125 -1.171875 Z M 20.8125 -1.171875 "/></g></g></g><g fill="#ffffff" fill-opacity="1"><g transform="translate(217.316353, 228.930074)"><g><path d="M 15.234375 -5.78125 C 15.160156 -4.875 14.953125 -4.054688 14.609375 -3.328125 C 14.273438 -2.597656 13.800781 -1.976562 13.1875 -1.46875 C 12.570312 -0.957031 11.816406 -0.5625 10.921875 -0.28125 C 10.023438 0 8.976562 0.140625 7.78125 0.140625 C 6.6875 0.140625 5.710938 0 4.859375 -0.28125 C 4.015625 -0.570312 3.300781 -0.976562 2.71875 -1.5 C 2.132812 -2.019531 1.691406 -2.632812 1.390625 -3.34375 C 1.085938 -4.0625 0.9375 -4.84375 0.9375 -5.6875 C 0.9375 -6.601562 1.109375 -7.472656 1.453125 -8.296875 C 1.804688 -9.117188 2.316406 -9.84375 2.984375 -10.46875 C 3.648438 -11.101562 4.46875 -11.609375 5.4375 -11.984375 C 6.414062 -12.359375 7.53125 -12.546875 8.78125 -12.546875 C 9.90625 -12.546875 10.890625 -12.367188 11.734375 -12.015625 C 12.585938 -11.671875 13.285156 -11.1875 13.828125 -10.5625 C 14.367188 -9.945312 14.757812 -9.234375 15 -8.421875 C 15.238281 -7.609375 15.316406 -6.726562 15.234375 -5.78125 Z M 11.953125 -5.8125 C 12.003906 -6.332031 11.960938 -6.820312 11.828125 -7.28125 C 11.703125 -7.738281 11.488281 -8.140625 11.1875 -8.484375 C 10.894531 -8.828125 10.519531 -9.097656 10.0625 -9.296875 C 9.613281 -9.492188 9.082031 -9.59375 8.46875 -9.59375 C 7.800781 -9.59375 7.207031 -9.488281 6.6875 -9.28125 C 6.164062 -9.070312 5.71875 -8.800781 5.34375 -8.46875 C 4.976562 -8.132812 4.695312 -7.742188 4.5 -7.296875 C 4.3125 -6.859375 4.21875 -6.410156 4.21875 -5.953125 C 4.21875 -4.972656 4.546875 -4.175781 5.203125 -3.5625 C 5.859375 -2.957031 6.738281 -2.65625 7.84375 -2.65625 C 8.46875 -2.65625 9.019531 -2.734375 9.5 -2.890625 C 9.976562 -3.054688 10.394531 -3.285156 10.75 -3.578125 C 11.101562 -3.867188 11.378906 -4.203125 11.578125 -4.578125 C 11.773438 -4.960938 11.898438 -5.375 11.953125 -5.8125 Z M 11.953125 -5.8125 "/></g></g></g><g fill="#ffffff" fill-opacity="1"><g transform="translate(233.036368, 228.930074)"><g><path d="M 9.953125 -9.640625 C 9.472656 -9.503906 9 -9.3125 8.53125 -9.0625 C 8.070312 -8.8125 7.632812 -8.503906 7.21875 -8.140625 C 6.800781 -7.785156 6.421875 -7.375 6.078125 -6.90625 C 5.734375 -6.445312 5.453125 -5.929688 5.234375 -5.359375 C 5.140625 -5.109375 5.0625 -4.789062 5 -4.40625 C 4.945312 -4.03125 4.90625 -3.628906 4.875 -3.203125 C 4.84375 -2.773438 4.820312 -2.363281 4.8125 -1.96875 C 4.800781 -1.582031 4.796875 -1.265625 4.796875 -1.015625 C 4.796875 -0.597656 4.628906 -0.289062 4.296875 -0.09375 C 3.960938 0.09375 3.585938 0.1875 3.171875 0.1875 C 2.765625 0.1875 2.398438 0.09375 2.078125 -0.09375 C 1.765625 -0.289062 1.613281 -0.5625 1.625 -0.90625 C 1.675781 -1.664062 1.691406 -2.472656 1.671875 -3.328125 C 1.660156 -4.179688 1.625 -5.039062 1.5625 -5.90625 C 1.5 -6.78125 1.421875 -7.640625 1.328125 -8.484375 C 1.242188 -9.335938 1.140625 -10.125 1.015625 -10.84375 C 0.941406 -11.25 1.050781 -11.566406 1.34375 -11.796875 C 1.644531 -12.023438 1.988281 -12.160156 2.375 -12.203125 C 2.769531 -12.253906 3.148438 -12.21875 3.515625 -12.09375 C 3.878906 -11.976562 4.09375 -11.78125 4.15625 -11.5 C 4.21875 -11.226562 4.269531 -10.898438 4.3125 -10.515625 C 4.363281 -10.128906 4.390625 -9.742188 4.390625 -9.359375 C 5.109375 -10.140625 5.835938 -10.796875 6.578125 -11.328125 C 7.316406 -11.867188 8.066406 -12.253906 8.828125 -12.484375 C 9.273438 -12.609375 9.671875 -12.550781 10.015625 -12.3125 C 10.359375 -12.082031 10.597656 -11.789062 10.734375 -11.4375 C 10.867188 -11.09375 10.882812 -10.738281 10.78125 -10.375 C 10.675781 -10.019531 10.398438 -9.773438 9.953125 -9.640625 Z M 9.953125 -9.640625 "/></g></g></g><g fill="#ffffff" fill-opacity="1"><g transform="translate(243.524374, 228.930074)"><g><path d="M 4.390625 -13.109375 C 4.421875 -12.847656 4.332031 -12.632812 4.125 -12.46875 C 3.914062 -12.3125 3.679688 -12.21875 3.421875 -12.1875 C 3.160156 -12.15625 2.910156 -12.191406 2.671875 -12.296875 C 2.441406 -12.398438 2.3125 -12.582031 2.28125 -12.84375 C 2.1875 -13.53125 2.0625 -14.257812 1.90625 -15.03125 C 1.757812 -15.8125 1.582031 -16.632812 1.375 -17.5 C 1.300781 -17.769531 1.375 -17.992188 1.59375 -18.171875 C 1.820312 -18.359375 2.082031 -18.472656 2.375 -18.515625 C 2.675781 -18.554688 2.96875 -18.519531 3.25 -18.40625 C 3.53125 -18.289062 3.703125 -18.066406 3.765625 -17.734375 C 3.890625 -16.984375 4.007812 -16.203125 4.125 -15.390625 C 4.238281 -14.585938 4.328125 -13.828125 4.390625 -13.109375 Z M 8.546875 -17.65625 C 8.460938 -16.832031 8.351562 -15.988281 8.21875 -15.125 C 8.082031 -14.257812 7.925781 -13.414062 7.75 -12.59375 C 7.707031 -12.34375 7.5625 -12.164062 7.3125 -12.0625 C 7.0625 -11.96875 6.800781 -11.929688 6.53125 -11.953125 C 6.269531 -11.984375 6.035156 -12.066406 5.828125 -12.203125 C 5.617188 -12.335938 5.53125 -12.519531 5.5625 -12.75 C 5.695312 -13.65625 5.800781 -14.523438 5.875 -15.359375 C 5.957031 -16.191406 6.015625 -17.023438 6.046875 -17.859375 C 6.066406 -18.160156 6.210938 -18.378906 6.484375 -18.515625 C 6.753906 -18.648438 7.046875 -18.703125 7.359375 -18.671875 C 7.679688 -18.648438 7.96875 -18.554688 8.21875 -18.390625 C 8.46875 -18.222656 8.578125 -17.976562 8.546875 -17.65625 Z M 8.546875 -17.65625 "/></g></g></g><g fill="#ffffff" fill-opacity="1"><g transform="translate(253.124387, 228.930074)"><g><path d="M 5.1875 -1.703125 C 5.1875 -1.140625 4.992188 -0.664062 4.609375 -0.28125 C 4.222656 0.09375 3.75 0.28125 3.1875 0.28125 C 2.632812 0.28125 2.164062 0.09375 1.78125 -0.28125 C 1.394531 -0.664062 1.203125 -1.140625 1.203125 -1.703125 C 1.203125 -2.265625 1.394531 -2.738281 1.78125 -3.125 C 2.164062 -3.507812 2.632812 -3.703125 3.1875 -3.703125 C 3.75 -3.703125 4.222656 -3.507812 4.609375 -3.125 C 4.992188 -2.738281 5.1875 -2.265625 5.1875 -1.703125 Z M 5.1875 -1.703125 "/></g></g></g></svg>